<?xml version="1.0" encoding="UTF-8" standalone="no"?>
<!-- Created with Inkscape (http://www.inkscape.org/) -->

<svg
   width="480mm"
   height="480mm"
   viewBox="0 0 480 480"
   version="1.1"
   id="svg1"
   xml:space="preserve"
   inkscape:version="1.4.2 (f4327f4, 2025-05-13)"
   sodipodi:docname="drawing.svg"
   xmlns:inkscape="http://www.inkscape.org/namespaces/inkscape"
   xmlns:sodipodi="http://sodipodi.sourceforge.net/DTD/sodipodi-0.dtd"
   xmlns="http://www.w3.org/2000/svg"
   xmlns:svg="http://www.w3.org/2000/svg"><sodipodi:namedview
     id="namedview1"
     pagecolor="#ffffff"
     bordercolor="#000000"
     borderopacity="0.25"
     inkscape:showpageshadow="2"
     inkscape:pageopacity="0.0"
     inkscape:pagecheckerboard="0"
     inkscape:deskcolor="#d1d1d1"
     inkscape:document-units="mm"
     inkscape:zoom="0.13050996"
     inkscape:cx="478.89065"
     inkscape:cy="160.90726"
     inkscape:window-width="1440"
     inkscape:window-height="830"
     inkscape:window-x="-6"
     inkscape:window-y="-6"
     inkscape:window-maximized="1"
     inkscape:current-layer="g3" /><defs
     id="defs1" /><g
     inkscape:label="Layer 1"
     inkscape:groupmode="layer"
     id="layer1"><rect
       style="opacity:1;fill:#f2f2f2;fill-opacity:1;stroke:#f2f2f2;stroke-width:0.369281;stroke-opacity:1"
       id="rect2"
       width="470.16818"
       height="469.15457"
       x="5.1513977"
       y="6.1650505"
       rx="20"
       ry="20" /><g
       id="g3"
       transform="matrix(0.42863317,0,0,0.42854338,-94.951847,93.096236)"><path
         d="m 920.86252,419.3852 c -5.96433,2.66751 -9.91864,1.16468 -32.48917,-12.31377 -8.06828,-4.81842 -27.95252,-16.52166 -44.2018,-26.00824 -16.24928,-9.48657 -30.9112,-18.44716 -32.58309,-19.91241 -0.93927,-0.82655 -1.72825,-1.49343 -2.40452,-2.26363 -3.64435,-4.2173 -3.61617,-11.6187 -3.38135,-65.43857 l 0.0188,-3.98248 0.263,-61.12735 2.45148,-3.68192 c 1.86913,-2.81779 5.55105,-5.4947 15.49786,-11.30875 7.17599,-4.19851 27.2105,-16.00507 44.51176,-26.24305 35.88931,-21.24617 40.04086,-23.91368 44.21119,-23.93247 0.59174,-0.009 1.18348,0.0376 1.86914,0.0939 0.36631,0.0376 0.7608,0.0657 1.19286,0.0939 5.19414,0.32875 7.11024,1.10834 17.55486,7.11024 14.24865,8.19039 14.38954,8.24674 16.29625,6.34003 1.39011,-1.39011 1.531,-8.03071 1.531,-70.56695 0,-50.194292 0.29117,-69.590109 1.08015,-71.08354 2.94929,-5.598018 7.33566,-4.893569 21.49038,3.456494 6.44336,3.79463 19.32067,11.336926 28.61938,16.756483 18.3157,10.670048 20.2787,12.501614 21.9976,20.560505 1.4183,6.584246 1.4183,268.451238 0,275.035478 -1.7283,8.08707 -3.7759,10.04074 -21.5561,20.60747 -45.31955,26.92872 -78.40985,46.23061 -81.96966,47.80858 z m 269.70048,-6.52789 c -9.1015,4.62118 -12.3419,3.90734 -31.7847,-7.00692 -6.4622,-3.62556 -19.3489,-10.82972 -28.6476,-16.01446 -45.6107,-25.43529 -54.6746,-30.667 -57.0415,-32.91184 -0.7796,-0.74202 -1.4465,-1.35254 -2.0195,-2.0476 -3.4752,-4.2173 -3.4471,-11.31814 -3.2029,-65.86124 l 0.01,-2.45148 0.263,-60.27262 2.8178,-3.9543 c 2.3858,-3.34379 8.0965,-7.06327 37.101,-24.15789 18.851,-11.10211 37.8711,-22.31693 42.2669,-24.89991 20.476,-12.07895 24.5148,-13.45027 32.0289,-10.8579 2.5736,0.8923 51.9038,29.18295 89.5119,51.3496 4.0765,2.41391 8.7258,6.0019 10.332,7.98375 l 2.9117,3.60678 0.2912,17.93995 c 0.3287,19.81849 -0.3758,23.57555 -5.2411,28.1122 -1.4089,1.31497 -10.1723,6.83785 -19.471,12.27619 -9.2987,5.43834 -21.9788,12.88671 -28.1779,16.54984 -6.1992,3.66314 -11.9945,6.65939 -12.868,6.66878 -2.8553,0 -6.4245,-2.15091 -6.866,-4.15155 -0.2442,-1.07076 -0.5448,-9.63685 -0.6857,-19.02011 -0.1596,-11.33692 -0.1033,-15.93932 -2.2166,-19.07647 -1.6156,-2.38573 -4.4897,-3.91673 -9.6838,-6.91298 -3.9168,-2.25424 -10.5104,-6.06765 -14.6432,-8.47217 -5.7483,-3.34378 -8.1152,-4.24548 -10.0877,-3.82281 -3.6537,0.77959 -30.8267,16.83163 -33.3533,19.70578 -2.0476,2.32937 -2.1133,3.01504 -2.0757,21.37766 0.019,13.43149 0.3757,19.58367 1.2116,21.09589 0.6481,1.16468 4.1234,3.85098 7.7114,5.95494 8.9042,5.21291 58.3941,31.64382 82.8619,44.24876 10.98,5.66376 20.5887,11.19603 21.3683,12.29497 1.7752,2.54541 1.7846,5.31624 0,7.86165 -1.3056,1.85974 -39.3928,23.06834 -62.6208,34.86551 z M 295.38734,392.01502 c -5.52287,2.79901 -6.55607,2.79901 -9.8341,-0.0188 l -2.63933,-2.27303 V 229.4189 l 2.23545,-3.89795 c 2.46087,-4.30183 4.92174,-6.01129 30.63881,-21.18981 8.78213,-5.18474 23.99822,-14.19229 33.81353,-20.01573 9.81532,-5.82344 21.83791,-12.94307 26.71269,-15.81722 9.02634,-5.33502 14.4365,-6.94117 19.55549,-5.81405 2.59237,0.56356 9.95621,4.76207 65.97396,37.58938 30.13161,17.65817 33.86989,20.22237 36.65011,25.08776 l 2.32938,4.05762 0.2536,78.64464 c 0.21603,67.13864 0.0564,79.12366 -1.10833,81.91328 -1.70947,4.0858 -4.79026,5.04385 -9.13905,2.82718 -7.48594,-3.80402 -55.0597,-32.79912 -57.51118,-35.05336 -5.25988,-4.81843 -5.28806,-5.09081 -5.28806,-48.04339 0,-32.49856 -0.24421,-39.9845 -1.34315,-42.12602 -1.7846,-3.4471 -30.47914,-20.78593 -34.38648,-20.78593 -2.99626,0 -29.77469,15.30062 -33.77596,19.30189 l -2.34816,2.33877 -0.46964,41.61882 -0.46963,41.60943 -2.46087,3.69131 c -1.75643,2.62055 -5.40077,5.43834 -12.68008,9.78714 -5.6168,3.35317 -16.9819,10.26616 -25.24743,15.36637 -8.26553,5.09081 -17.01948,10.26616 -19.46157,11.50599 z m 611.61163,-62.42353 c 3.325,1.99124 7.08206,3.61617 8.35946,3.61617 2.72386,0 35.41967,-19.2925 36.44347,-21.50917 1.22104,-2.65812 1.55918,-37.73026 0.3851,-41.61882 -0.99563,-3.33439 -2.16971,-4.2173 -17.69575,-13.42209 -18.09963,-10.7264 -20.24116,-11.3651 -25.66071,-7.72076 -1.74704,1.17408 -8.89484,5.45713 -15.86419,9.51475 -6.96934,4.05763 -13.20606,8.04011 -13.85415,8.84788 -0.86412,1.07076 -1.17408,7.11963 -1.17408,22.72081 0,2.05699 -0.009,3.91674 -0.0188,5.61681 -0.047,9.79653 -0.0657,13.98565 1.85975,16.86919 1.77521,2.65812 5.20352,4.2173 11.77838,8.02132 5.16595,2.99626 12.11651,7.07266 15.44151,9.06391 z"
         fill="#323231"
         id="path1"
         style="stroke-width:0.939265" /><path
         d="m 663.50398,416.71768 c -7.78651,4.0858 -11.3651,4.63058 -16.31503,2.47027 -3.64435,-1.57797 -28.70393,-16.16475 -81.08672,-47.19805 -18.18417,-10.77337 -20.65444,-12.97125 -22.57993,-20.12845 -0.62931,-2.35755 -0.87352,-24.08274 -0.70445,-62.55503 l 0.27239,-58.94825 2.28241,-3.98249 c 2.47966,-4.33001 4.90296,-6.20854 16.97252,-13.16849 4.38636,-2.53601 23.68825,-13.94808 42.87743,-25.36015 36.99764,-22.00697 41.29947,-24.6463 45.78916,-24.99383 0.75141,-0.0564 1.51221,-0.0564 2.44209,-0.0658 0.29117,0 0.56355,-0.009 0.81716,-0.009 0.59173,-0.0188 1.10833,-0.0282 1.61553,0 3.55981,0.20664 7.00692,2.38573 36.07716,19.73395 8.01193,4.78086 25.12533,14.81221 38.04022,22.30754 12.91489,7.49533 24.6557,14.54921 26.09278,15.68572 1.43707,1.13651 3.4471,3.69131 4.4615,5.68255 1.78461,3.49407 1.85036,5.81405 1.85036,64.72473 0,59.7842 -0.0376,61.1931 -1.93489,65.22255 -1.07076,2.27302 -2.65812,4.73389 -3.52224,5.46652 -1.47465,1.23983 -9.29872,5.91737 -50.42913,30.09404 -8.78212,5.16596 -20.40083,12.04137 -25.82978,15.29123 -5.42895,3.24046 -13.1591,7.61744 -17.18854,9.73078 z M 802.62787,644.4706 c -12.53918,7.12902 -17.20733,8.71637 -21.90365,7.45776 -1.9255,-0.52599 -78.24075,-43.73217 -92.43305,-52.34523 -3.55042,-2.15091 -6.04886,-3.14653 -7.79589,-4.89356 -4.12337,-4.0952 -4.15155,-12.32316 -4.25487,-49.47108 -0.009,-5.21292 -0.0282,-10.99879 -0.0564,-17.41397 -0.18785,-40.54806 0.047,-62.83681 0.68567,-65.03469 0.53538,-1.84096 1.93488,-4.2173 3.09957,-5.28806 1.17408,-1.06137 13.32817,-8.38763 27.02265,-16.25867 5.68255,-3.26864 10.93304,-6.29307 15.79843,-9.10148 53.1342,-30.61063 59.96266,-34.53676 64.97833,-32.91183 1.20226,0.39449 2.3012,1.09894 3.89795,1.83156 2.76144,1.26801 13.47845,7.17599 23.81036,13.13093 10.33192,5.94554 30.4134,17.47971 44.61508,25.61375 14.20168,8.13403 27.00386,15.89235 28.43154,17.2355 1.43708,1.34315 3.04322,3.93552 3.56921,5.76709 0.6387,2.1697 0.87351,24.67448 0.68566,65.0159 -0.27239,60.50744 -0.31935,61.73787 -2.20727,64.33964 -2.39513,3.28742 -8.75395,7.4014 -28.60061,18.51291 -8.52853,4.77146 -22.46722,12.68946 -30.99574,17.59242 -8.52852,4.90297 -21.28374,12.21045 -28.34701,16.22111 z m 28.34701,-49.79982 c 1.29619,0.2536 6.15219,0.31935 10.80155,0.15968 13.76962,-0.46964 22.93684,-5.10021 28.33761,-14.32379 1.96307,-3.34378 2.60177,-5.87041 2.93051,-11.55296 0.99562,-17.15097 -6.40579,-25.20047 -32.39524,-35.21303 -8.78213,-3.38136 -12.49222,-6.92238 -12.49222,-11.89109 0,-5.83284 3.09957,-8.30311 10.43523,-8.30311 5.56984,0 5.97372,0.15968 9.39265,3.75706 1.97245,2.06639 3.88855,3.75706 4.26426,3.75706 0.3757,0 3.99187,-2.1697 8.02132,-4.81843 l 7.33566,-4.80903 -3.18411,-4.3488 c -2.24484,-3.062 -5.04385,-5.30684 -9.53354,-7.62683 -6.10522,-3.15593 -6.74392,-3.28742 -16.30563,-3.25924 -8.77274,0.0188 -10.56673,0.31935 -15.12217,2.48905 -5.94554,2.83658 -11.27117,7.55169 -13.72265,12.14469 -2.63934,4.92175 -2.46088,18.80408 0.29117,23.95125 3.14653,5.8798 10.42584,11.84413 18.75711,15.36637 21.90366,9.26115 23.79158,10.6043 23.79158,16.85041 0,12.56736 -19.97816,14.4365 -30.39461,2.84597 l -4.12337,-4.58361 -8.07768,4.43333 c -4.44272,2.44209 -8.08707,4.9875 -8.09646,5.66377 -0.047,1.93488 9.2048,11.19603 13.6757,13.70387 4.02005,2.23545 10.86729,4.73389 15.41333,5.60741 z m -84.84378,-0.97683 c 0.33813,0.34752 4.98749,0.6293 10.33191,0.6293 h 9.7026 v -79.8375 h 29.11721 v -17.84603 h -78.97338 l 0.54478,17.3764 14.32378,0.26299 14.32379,0.2536 v 39.27066 c 0,21.5937 0.28178,39.55244 0.62931,39.89058 z m 438.4957,-287.34927 c -4.2267,2.37634 -8.0776,4.31123 -8.5567,4.30184 -1.0519,-0.0188 -18.2593,-10.05014 -19.856,-11.58114 -0.7045,-0.68566 -1.362,-5.19413 -1.6813,-11.69384 -0.479,-9.5805 -0.3475,-10.83912 1.3525,-13.23424 2.2073,-3.09018 17.1792,-12.31376 19.997,-12.31376 2.3763,0 17.5736,8.59427 20.0627,11.34631 1.5779,1.73764 1.8128,3.44711 1.8128,13.26242 v 11.26179 l -2.7145,2.1603 c -1.4934,1.19287 -6.1804,4.11398 -10.4165,6.49032 z"
         fill="#3a629f"
         id="path2"
         style="stroke-width:0.939265" /></g></g></svg>
