<?xml version="1.0" encoding="UTF-8" standalone="no"?>
<!-- Created with Inkscape (http://www.inkscape.org/) -->

<svg
   width="480mm"
   height="480mm"
   viewBox="0 0 480 480"
   version="1.1"
   id="svg1"
   xml:space="preserve"
   inkscape:version="1.4.2 (f4327f4, 2025-05-13)"
   sodipodi:docname="drawing.svg"
   xmlns:inkscape="http://www.inkscape.org/namespaces/inkscape"
   xmlns:sodipodi="http://sodipodi.sourceforge.net/DTD/sodipodi-0.dtd"
   xmlns="http://www.w3.org/2000/svg"
   xmlns:svg="http://www.w3.org/2000/svg"><sodipodi:namedview
     id="namedview1"
     pagecolor="#ffffff"
     bordercolor="#000000"
     borderopacity="0.25"
     inkscape:showpageshadow="2"
     inkscape:pageopacity="0.0"
     inkscape:pagecheckerboard="0"
     inkscape:deskcolor="#d1d1d1"
     inkscape:document-units="mm"
     inkscape:zoom="0.26101992"
     inkscape:cx="986.51474"
     inkscape:cy="766.22504"
     inkscape:window-width="1440"
     inkscape:window-height="830"
     inkscape:window-x="-6"
     inkscape:window-y="-6"
     inkscape:window-maximized="1"
     inkscape:current-layer="layer1" /><defs
     id="defs1" /><g
     inkscape:label="Layer 1"
     inkscape:groupmode="layer"
     id="layer1"><ellipse
       style="fill:#f2f2f2;fill-opacity:1;stroke:#f2f2f2;stroke-width:0.187125;stroke-opacity:1"
       id="path1"
       cx="240.71599"
       cy="239.5253"
       rx="237.97227"
       ry="235.10526" /><g
       id="g3"
       transform="matrix(0.40839218,0,0,0.4332349,-78.483925,100.7398)"
       style="opacity:1"><path
         d="m 929.7,415.75 c -6.35,2.84 -10.56,1.24 -34.59,-13.11 -8.59,-5.13 -29.76,-17.59 -47.06,-27.69 -17.3,-10.1 -32.91,-19.64 -34.69,-21.2 -1,-0.88 -1.84,-1.59 -2.56,-2.41 -3.88,-4.49 -3.85,-12.37 -3.6,-69.67 l 0.02,-4.24 0.28,-65.08 2.61,-3.92 c 1.99,-3 5.91,-5.85 16.5,-12.04 7.64,-4.47 28.97,-17.04 47.39,-27.94 38.21,-22.62 42.63,-25.46 47.07,-25.48 0.63,-0.01 1.26,0.04 1.99,0.1 0.39,0.04 0.81,0.07 1.27,0.1 5.53,0.35 7.57,1.18 18.69,7.57 15.17,8.72 15.32,8.78 17.35,6.75 1.48,-1.48 1.63,-8.55 1.63,-75.13 0,-53.44 0.31,-74.09 1.15,-75.68 3.14,-5.96 7.81,-5.21 22.88,3.68 6.86,4.04 20.57,12.07 30.47,17.84 19.5,11.36 21.59,13.31 23.42,21.89 1.51,7.01 1.51,285.81 0,292.82 -1.84,8.61 -4.02,10.69 -22.95,21.94 -48.25,28.67 -83.48,49.22 -87.27,50.9 z m 287.14,-6.95 c -9.69,4.92 -13.14,4.16 -33.84,-7.46 -6.88,-3.86 -20.6,-11.53 -30.5,-17.05 -48.56,-27.08 -58.21,-32.65 -60.73,-35.04 -0.83,-0.79 -1.54,-1.44 -2.15,-2.18 -3.7,-4.49 -3.67,-12.05 -3.41,-70.12 l 0.01,-2.61 0.28,-64.17 3,-4.21 c 2.54,-3.56 8.62,-7.52 39.5,-25.72 20.07,-11.82 40.32,-23.76 45,-26.51 21.8,-12.86 26.1,-14.32 34.1,-11.56 2.74,0.95 55.26,31.07 95.3,54.67 4.34,2.57 9.29,6.39 11,8.5 l 3.1,3.84 0.31,19.1 c 0.35,21.1 -0.4,25.1 -5.58,29.93 -1.5,1.4 -10.83,7.28 -20.73,13.07 -9.9,5.79 -23.4,13.72 -30,17.62 -6.6,3.9 -12.77,7.09 -13.7,7.1 -3.04,0 -6.84,-2.29 -7.31,-4.42 -0.26,-1.14 -0.58,-10.26 -0.73,-20.25 -0.17,-12.07 -0.11,-16.97 -2.36,-20.31 -1.72,-2.54 -4.78,-4.17 -10.31,-7.36 -4.17,-2.4 -11.19,-6.46 -15.59,-9.02 -6.12,-3.56 -8.64,-4.52 -10.74,-4.07 -3.89,0.83 -32.82,17.92 -35.51,20.98 -2.18,2.48 -2.25,3.21 -2.21,22.76 0.02,14.3 0.4,20.85 1.29,22.46 0.69,1.24 4.39,4.1 8.21,6.34 9.48,5.55 62.17,33.69 88.22,47.11 11.69,6.03 21.92,11.92 22.75,13.09 1.89,2.71 1.9,5.66 0,8.37 -1.39,1.98 -41.94,24.56 -66.67,37.12 z M 263.78,386.61 c -5.88,2.98 -6.98,2.98 -10.47,-0.02 l -2.81,-2.42 V 213.5 l 2.38,-4.15 c 2.62,-4.58 5.24,-6.4 32.62,-22.56 9.35,-5.52 25.55,-15.11 36,-21.31 10.45,-6.2 23.25,-13.78 28.44,-16.84 9.61,-5.68 15.37,-7.39 20.82,-6.19 2.76,0.6 10.6,5.07 70.24,40.02 32.08,18.8 36.06,21.53 39.02,26.71 l 2.48,4.32 0.27,83.73 c 0.23,71.48 0.06,84.24 -1.18,87.21 -1.82,4.35 -5.1,5.37 -9.73,3.01 -7.97,-4.05 -58.62,-34.92 -61.23,-37.32 -5.6,-5.13 -5.63,-5.42 -5.63,-51.15 0,-34.6 -0.26,-42.57 -1.43,-44.85 -1.9,-3.67 -32.45,-22.13 -36.61,-22.13 -3.19,0 -31.7,16.29 -35.96,20.55 l -2.5,2.49 -0.5,44.31 -0.5,44.3 -2.62,3.93 c -1.87,2.79 -5.75,5.79 -13.5,10.42 -5.98,3.57 -18.08,10.93 -26.88,16.36 -8.8,5.42 -18.12,10.93 -20.72,12.25 z m 651.16,-66.46 c 3.54,2.12 7.54,3.85 8.9,3.85 2.9,0 37.71,-20.54 38.8,-22.9 1.3,-2.83 1.66,-40.17 0.41,-44.31 -1.06,-3.55 -2.31,-4.49 -18.84,-14.29 -19.27,-11.42 -21.55,-12.1 -27.32,-8.22 -1.86,1.25 -9.47,5.81 -16.89,10.13 -7.42,4.32 -14.06,8.56 -14.75,9.42 -0.92,1.14 -1.25,7.58 -1.25,24.19 0,2.19 -0.01,4.17 -0.02,5.98 -0.05,10.43 -0.07,14.89 1.98,17.96 1.89,2.83 5.54,4.49 12.54,8.54 5.5,3.19 12.9,7.53 16.44,9.65 z"
         fill="#323231"
         id="path1-8" /><path
         d="m 655.7,412.91 c -8.29,4.35 -12.1,4.93 -17.37,2.63 -3.88,-1.68 -30.56,-17.21 -86.33,-50.25 -19.36,-11.47 -21.99,-13.81 -24.04,-21.43 -0.67,-2.51 -0.93,-25.64 -0.75,-66.6 l 0.29,-62.76 2.43,-4.24 c 2.64,-4.61 5.22,-6.61 18.07,-14.02 4.67,-2.7 25.22,-14.85 45.65,-27 39.39,-23.43 43.97,-26.24 48.75,-26.61 0.8,-0.06 1.61,-0.06 2.6,-0.07 0.31,0 0.6,-0.01 0.87,-0.01 0.63,-0.02 1.18,-0.03 1.72,0 3.79,0.22 7.46,2.54 38.41,21.01 8.53,5.09 26.75,15.77 40.5,23.75 13.75,7.98 26.25,15.49 27.78,16.7 1.53,1.21 3.67,3.93 4.75,6.05 1.9,3.72 1.97,6.19 1.97,68.91 0,63.65 -0.04,65.15 -2.06,69.44 -1.14,2.42 -2.83,5.04 -3.75,5.82 -1.57,1.32 -9.9,6.3 -53.69,32.04 -9.35,5.5 -21.72,12.82 -27.5,16.28 -5.78,3.45 -14.01,8.11 -18.3,10.36 z m 148.12,242.48 c -13.35,7.59 -18.32,9.28 -23.32,7.94 -2.05,-0.56 -83.3,-46.56 -98.41,-55.73 -3.78,-2.29 -6.44,-3.35 -8.3,-5.21 -4.39,-4.36 -4.42,-13.12 -4.53,-52.67 -0.01,-5.55 -0.03,-11.71 -0.06,-18.54 -0.2,-43.17 0.05,-66.9 0.73,-69.24 0.57,-1.96 2.06,-4.49 3.3,-5.63 1.25,-1.13 14.19,-8.93 28.77,-17.31 6.05,-3.48 11.64,-6.7 16.82,-9.69 56.57,-32.59 63.84,-36.77 69.18,-35.04 1.28,0.42 2.45,1.17 4.15,1.95 2.94,1.35 14.35,7.64 25.35,13.98 11,6.33 32.38,18.61 47.5,27.27 15.12,8.66 28.75,16.92 30.27,18.35 1.53,1.43 3.24,4.19 3.8,6.14 0.68,2.31 0.93,26.27 0.73,69.22 -0.29,64.42 -0.34,65.73 -2.35,68.5 -2.55,3.5 -9.32,7.88 -30.45,19.71 -9.08,5.08 -23.92,13.51 -33,18.73 -9.08,5.22 -22.66,13 -30.18,17.27 z M 834,602.37 c 1.38,0.27 6.55,0.34 11.5,0.17 14.66,-0.5 24.42,-5.43 30.17,-15.25 2.09,-3.56 2.77,-6.25 3.12,-12.3 1.06,-18.26 -6.82,-26.83 -34.49,-37.49 -9.35,-3.6 -13.3,-7.37 -13.3,-12.66 0,-6.21 3.3,-8.84 11.11,-8.84 5.93,0 6.36,0.17 10,4 2.1,2.2 4.14,4 4.54,4 0.4,0 4.25,-2.31 8.54,-5.13 l 7.81,-5.12 -3.39,-4.63 c -2.39,-3.26 -5.37,-5.65 -10.15,-8.12 -6.5,-3.36 -7.18,-3.5 -17.36,-3.47 -9.34,0.02 -11.25,0.34 -16.1,2.65 -6.33,3.02 -12,8.04 -14.61,12.93 -2.81,5.24 -2.62,20.02 0.31,25.5 3.35,6.26 11.1,12.61 19.97,16.36 23.32,9.86 25.33,11.29 25.33,17.94 0,13.38 -21.27,15.37 -32.36,3.03 l -4.39,-4.88 -8.6,4.72 c -4.73,2.6 -8.61,5.31 -8.62,6.03 -0.05,2.06 9.8,11.92 14.56,14.59 4.28,2.38 11.57,5.04 16.41,5.97 z m -90.33,-1.04 c 0.36,0.37 5.31,0.67 11,0.67 H 765 v -85 h 31 v -19 h -84.08 l 0.58,18.5 15.25,0.28 15.25,0.27 v 41.81 c 0,22.99 0.3,42.11 0.67,42.47 z M 1210.52,295.4 c -4.5,2.53 -8.6,4.59 -9.11,4.58 -1.12,-0.02 -19.44,-10.7 -21.14,-12.33 -0.75,-0.73 -1.45,-5.53 -1.79,-12.45 -0.51,-10.2 -0.37,-11.54 1.44,-14.09 2.35,-3.29 18.29,-13.11 21.29,-13.11 2.53,0 18.71,9.15 21.36,12.08 1.68,1.85 1.93,3.67 1.93,14.12 v 11.99 l -2.89,2.3 c -1.59,1.27 -6.58,4.38 -11.09,6.91 z"
         fill="#3a629f"
         id="path2" /><path
         d="m 229.10394,397.70474 1.60094,-229.1069 557.72334,-220.071859 332.53248,18.32342 L 1333.77,215.36904 1258.8012,593.15506 778.5,672 330.92791,606.86722 Z M 803.82,655.39 c 7.52,-4.27 21.1,-12.05 30.18,-17.27 9.08,-5.22 23.92,-13.65 33,-18.73 21.13,-11.83 27.9,-16.21 30.45,-19.71 2.01,-2.77 2.06,-4.08 2.35,-68.5 0.2,-42.95 -0.05,-66.91 -0.73,-69.22 -0.56,-1.95 -2.27,-4.71 -3.8,-6.14 -1.52,-1.43 -15.15,-9.69 -30.27,-18.35 -15.12,-8.66 -36.5,-20.94 -47.5,-27.27 -11,-6.34 -22.41,-12.63 -25.35,-13.98 -9.49,-4.36 -2.33,-7.75 -90.15,42.78 -14.58,8.38 -27.52,16.18 -28.77,17.31 -1.24,1.14 -2.73,3.67 -3.3,5.63 -0.68,2.34 -0.93,26.07 -0.73,69.24 0.35,76.23 -1.05,67.97 12.89,76.42 15.11,9.17 96.36,55.17 98.41,55.73 5,1.34 9.97,-0.35 23.32,-7.94 z M 655.7,412.91 c 4.29,-2.25 12.52,-6.91 18.3,-10.36 5.78,-3.46 18.15,-10.78 27.5,-16.28 43.79,-25.74 52.12,-30.72 53.69,-32.04 0.92,-0.78 2.61,-3.4 3.75,-5.82 2.02,-4.29 2.06,-5.79 2.06,-69.44 0,-62.72 -0.07,-65.19 -1.97,-68.91 -1.08,-2.12 -3.22,-4.84 -4.75,-6.05 -1.53,-1.21 -14.03,-8.72 -27.78,-16.7 -13.75,-7.98 -31.97,-18.66 -40.5,-23.75 -37.32,-22.27 -34.97,-21.07 -41,-21 -6.82,0.08 -5.31,-0.71 -51.35,26.68 -20.43,12.15 -40.98,24.3 -45.65,27 -12.85,7.41 -15.43,9.41 -18.07,14.02 l -2.43,4.24 -0.29,62.76 c -0.18,40.96 0.08,64.09 0.75,66.6 2.05,7.62 4.68,9.96 24.04,21.43 55.77,33.04 82.45,48.57 86.33,50.25 5.27,2.3 9.08,1.72 17.37,-2.63 z m 274,2.84 c 3.79,-1.68 39.02,-22.23 87.27,-50.9 18.93,-11.25 21.11,-13.33 22.95,-21.94 1.51,-7.01 1.51,-285.81 0,-292.82 C 1038.09,41.51 1036,39.56 1016.5,28.2 1006.6,22.43 992.89,14.4 986.03,10.36 970.96,1.47 966.29,0.72 963.15,6.68 962.31,8.27 962,28.92 962,82.36 c 0,66.58 -0.15,73.65 -1.63,75.13 -2.03,2.03 -2.18,1.97 -17.35,-6.75 -11.12,-6.39 -13.16,-7.22 -18.69,-7.57 -7.38,-0.47 -3.77,-2.28 -50.33,25.28 -18.42,10.9 -39.75,23.47 -47.39,27.94 -10.59,6.19 -14.51,9.04 -16.5,12.04 l -2.61,3.92 -0.28,65.08 c -0.31,72.13 -0.44,70.54 6.14,76.32 1.78,1.56 17.39,11.1 34.69,21.2 17.3,10.1 38.47,22.56 47.06,27.69 24.03,14.35 28.24,15.95 34.59,13.11 z m 287.14,-6.95 c 24.73,-12.56 65.28,-35.14 66.67,-37.12 1.9,-2.71 1.89,-5.66 0,-8.37 -0.83,-1.17 -11.06,-7.06 -22.75,-13.09 -26.05,-13.42 -78.74,-41.56 -88.22,-47.11 -3.82,-2.24 -7.52,-5.1 -8.21,-6.34 -0.89,-1.61 -1.27,-8.16 -1.29,-22.46 -0.04,-19.55 0.03,-20.28 2.21,-22.76 2.69,-3.06 31.62,-20.15 35.51,-20.98 2.1,-0.45 4.62,0.51 10.74,4.07 4.4,2.56 11.42,6.62 15.59,9.02 12.8,7.37 12.37,6.43 12.67,27.67 0.15,9.99 0.47,19.11 0.73,20.25 0.47,2.13 4.27,4.42 7.31,4.42 0.93,-0.01 7.1,-3.2 13.7,-7.1 6.6,-3.9 20.1,-11.83 30,-17.62 9.9,-5.79 19.23,-11.67 20.73,-13.07 5.18,-4.83 5.93,-8.83 5.58,-29.93 l -0.31,-19.1 -3.1,-3.84 c -1.71,-2.11 -6.66,-5.93 -11,-8.5 -40.04,-23.6 -92.56,-53.72 -95.3,-54.67 -8,-2.76 -12.3,-1.3 -34.1,11.56 -4.68,2.75 -24.93,14.69 -45,26.51 -30.88,18.2 -36.96,22.16 -39.5,25.72 l -3,4.21 -0.28,64.17 c -0.31,70.26 -0.38,69.29 5.55,74.91 2.52,2.39 12.17,7.96 60.73,35.04 9.9,5.52 23.62,13.19 30.5,17.05 20.7,11.62 24.15,12.38 33.84,7.46 z M 263.78,386.61 c 2.6,-1.32 11.92,-6.83 20.72,-12.25 8.8,-5.43 20.9,-12.79 26.88,-16.36 7.75,-4.63 11.63,-7.63 13.5,-10.42 l 2.62,-3.93 0.5,-44.3 0.5,-44.31 2.5,-2.49 c 4.26,-4.26 32.77,-20.55 35.96,-20.55 4.16,0 34.71,18.46 36.61,22.13 1.17,2.28 1.43,10.25 1.43,44.85 0,45.73 0.03,46.02 5.63,51.15 2.61,2.4 53.26,33.27 61.23,37.32 4.63,2.36 7.91,1.34 9.73,-3.01 1.24,-2.97 1.41,-15.73 1.18,-87.21 l -0.27,-83.73 -2.48,-4.32 c -2.96,-5.18 -6.94,-7.91 -39.02,-26.71 -59.64,-34.95 -67.48,-39.42 -70.24,-40.02 -5.45,-1.2 -11.21,0.51 -20.82,6.19 -5.19,3.06 -17.99,10.64 -28.44,16.84 -10.45,6.2 -26.65,15.79 -36,21.31 -27.38,16.16 -30,17.98 -32.62,22.56 l -2.38,4.15 v 85.34 85.33 l 2.81,2.42 c 3.49,3 4.59,3 10.47,0.02 z m 946.74,-91.21 c 4.51,-2.53 9.5,-5.64 11.09,-6.91 l 2.89,-2.3 V 274.2 c 0,-10.45 -0.25,-12.27 -1.93,-14.12 -2.65,-2.93 -18.83,-12.08 -21.36,-12.08 -3,0 -18.94,9.82 -21.29,13.11 -1.81,2.55 -1.95,3.89 -1.44,14.09 0.34,6.92 1.04,11.72 1.79,12.45 1.7,1.63 20.02,12.31 21.14,12.33 0.51,0.01 4.61,-2.05 9.11,-4.58 z M 834,602.37 c -4.84,-0.93 -12.13,-3.59 -16.41,-5.97 -4.76,-2.67 -14.61,-12.53 -14.56,-14.59 0.01,-0.72 3.89,-3.43 8.62,-6.03 l 8.6,-4.72 4.39,4.88 c 11.09,12.34 32.36,10.35 32.36,-3.03 0,-6.65 -2.01,-8.08 -25.33,-17.94 -8.87,-3.75 -16.62,-10.1 -19.97,-16.36 -2.93,-5.48 -3.12,-20.26 -0.31,-25.5 2.61,-4.89 8.28,-9.91 14.61,-12.93 4.85,-2.31 6.76,-2.63 16.1,-2.65 10.18,-0.03 10.86,0.11 17.36,3.47 4.78,2.47 7.76,4.86 10.15,8.12 l 3.39,4.63 -7.81,5.12 c -4.29,2.82 -8.14,5.13 -8.54,5.13 -0.4,0 -2.44,-1.8 -4.54,-4 -3.64,-3.83 -4.07,-4 -10,-4 -7.81,0 -11.11,2.63 -11.11,8.84 0,5.29 3.95,9.06 13.3,12.66 27.67,10.66 35.55,19.23 34.49,37.49 -0.35,6.05 -1.03,8.74 -3.12,12.3 -5.75,9.82 -15.51,14.75 -30.17,15.25 -4.95,0.17 -10.12,0.1 -11.5,-0.17 z m -90.33,-1.04 C 743.3,600.97 743,581.85 743,558.86 v -41.81 l -15.25,-0.27 -15.25,-0.28 -0.29,-9.25 -0.29,-9.25 H 753.96 796 v 9.5 9.5 H 780.5 765 v 42.5 42.5 h -10.33 c -5.69,0 -10.64,-0.3 -11,-0.67 z M 914.94,320.15 C 911.4,318.03 904,313.69 898.5,310.5 882.57,301.28 884,304.47 884,278.02 c 0,-16.61 0.33,-23.05 1.25,-24.19 0.69,-0.86 7.33,-5.1 14.75,-9.42 7.42,-4.32 15.03,-8.88 16.89,-10.13 5.77,-3.88 8.05,-3.2 27.32,8.22 16.53,9.8 17.78,10.74 18.84,14.29 1.25,4.14 0.89,41.48 -0.41,44.31 -1.09,2.36 -35.9,22.9 -38.8,22.9 -1.36,0 -5.36,-1.73 -8.9,-3.85 z"
         fill="#fefefe"
         id="path3"
         sodipodi:nodetypes="ccccccccccscccccsccccccccccccccscssccccccccccccccccccssccccccccscccccccccsccccccsscccccccccccccccccccccccscscccccccccsccccccccccscscccccccccccscccccccccscssccccccscccccccccccccscscscsccccss"
         style="fill:#f2f2f2;fill-opacity:1" /></g></g></svg>
