<svg width="480" height="480" viewBox="0 0 480 480" fill="none" xmlns="http://www.w3.org/2000/svg">

  <!-- Background -->
  <path d="
    M40 0
    H440
    A40 40 0 0 1 480 40
    V440
    A40 40 0 0 1 440 480
    H0
    V40
    A40 40 0 0 1 40 0
    Z
  " fill="#000000"/>

  <!-- Logo (NOT clipped to rounded corner anymore) -->
  <g>
    <path transform="translate(0, 81)" d="M399.28 94.733C399.221 93.368 399.102 92.033 398.984 90.668C398.954 90.342 398.954 89.986 398.894 89.659C398.805 88.829 398.687 88.027 398.568 87.197C398.449 86.336 398.36 85.506 398.241 84.675C398.152 84.082 398.034 83.488 397.915 82.924C397.737 81.886 397.559 80.818 397.351 79.78C397.173 78.949 396.965 78.148 396.787 77.317C396.609 76.516 396.431 75.745 396.253 74.944C396.045 74.113 395.778 73.312 395.54 72.481C395.333 71.71 395.125 70.968 394.887 70.197C394.62 69.366 394.323 68.535 394.027 67.704C393.789 66.992 393.552 66.28 393.314 65.568C392.928 64.53 392.513 63.521 392.127 62.512C391.919 62.008 391.741 61.533 391.533 61.029C391.058 59.931 390.584 58.863 390.079 57.795C389.901 57.409 389.723 56.994 389.545 56.608C389.07 55.599 388.535 54.62 388.031 53.641C387.793 53.196 387.586 52.751 387.348 52.306C386.755 51.208 386.102 50.111 385.478 49.043C385.3 48.746 385.152 48.449 384.974 48.153C384.291 47.025 383.579 45.927 382.837 44.83C382.688 44.592 382.54 44.355 382.391 44.118C381.501 42.812 380.581 41.507 379.631 40.231C378.741 39.044 377.82 37.857 376.871 36.7C376.811 36.611 376.752 36.522 376.663 36.433C358.319 14.211 330.626 0.089 299.609 0.059V0L299.52 0.059H299.549C290.942 0.059 282.571 1.157 274.587 3.204C269.808 4.421 265.148 6.023 260.666 7.892C259.182 8.515 257.698 9.197 256.243 9.88C226.769 24.061 205.398 52.306 200.679 85.891H200.62C198.542 100.281 194.119 113.899 187.827 126.419H188.035C166.129 169.854 121.132 199.671 69.129 199.671C45.918 199.671 24.131 193.738 5.135 183.324C2.909 182.107 0.208 183.71 0.208 186.231V199.671H0V399.254H199.7V299.448H199.907V249.545C199.907 221.982 222.258 199.642 249.832 199.642H299.757C308.305 199.642 316.587 198.544 324.512 196.497C329.291 195.251 333.951 193.678 338.433 191.809C339.917 191.186 341.401 190.504 342.855 189.821C373.398 175.106 395.303 145.288 398.894 110.071C399.221 106.719 399.399 103.307 399.399 99.865C399.399 98.145 399.369 96.424 399.28 94.733Z" fill="white"/>
  </g>

</svg>
