<?xml version="1.0" encoding="UTF-8" standalone="no"?>
<!-- Created with Inkscape (http://www.inkscape.org/) -->

<svg
   width="124.21545mm"
   height="35.236633mm"
   viewBox="0 0 124.21545 35.236633"
   version="1.1"
   id="svg1"
   inkscape:version="1.4.2 (f4327f4, 2025-05-13)"
   sodipodi:docname="etraveli-b.svg"
   xmlns:inkscape="http://www.inkscape.org/namespaces/inkscape"
   xmlns:sodipodi="http://sodipodi.sourceforge.net/DTD/sodipodi-0.dtd"
   xmlns="http://www.w3.org/2000/svg"
   xmlns:svg="http://www.w3.org/2000/svg">
  <sodipodi:namedview
     id="namedview1"
     pagecolor="#ffffff"
     bordercolor="#000000"
     borderopacity="0.25"
     inkscape:showpageshadow="2"
     inkscape:pageopacity="0.0"
     inkscape:pagecheckerboard="0"
     inkscape:deskcolor="#d1d1d1"
     inkscape:document-units="mm"
     inkscape:zoom="0.52203984"
     inkscape:cx="226.03639"
     inkscape:cy="136.00494"
     inkscape:window-width="1440"
     inkscape:window-height="830"
     inkscape:window-x="-6"
     inkscape:window-y="-6"
     inkscape:window-maximized="1"
     inkscape:current-layer="layer1" />
  <defs
     id="defs1">
    <clipPath
       clipPathUnits="userSpaceOnUse"
       id="clipPath5">
      <rect
         style="fill:#000000;stroke-width:0.203"
         id="rect6"
         width="83.144173"
         height="20.248472"
         x="80.27713"
         y="71.317635" />
    </clipPath>
  </defs>
  <g
     inkscape:label="Layer 1"
     inkscape:groupmode="layer"
     id="layer1"
     transform="translate(-45.24375,-112.7125)">
    <g
       id="g115989"
       transform="translate(12.000833,76.116931)">
      <path
         style="fill:#000000"
         d="m 57.224249,96.467076 c -3.312943,-1.050496 -5.909527,-4.108873 -6.838232,-8.054389 -0.492447,-2.092115 -0.312882,-5.503456 0.401214,-7.622193 0.297677,-0.883212 0.719765,-1.910792 0.937974,-2.283511 0.450382,-0.769291 0.46277,-0.727512 -0.267666,-0.902681 -0.510221,-0.122359 -0.590196,-0.04723 -1.167876,1.097149 -3.006653,5.956146 -0.933292,13.742877 4.506353,16.9241 0.72832,0.425937 1.324218,0.802821 1.324218,0.83752 0,0.145382 -2.200637,-0.588521 -3.347702,-1.116444 -4.395799,-2.023112 -7.715887,-6.116997 -8.793233,-10.842628 -0.47897,-2.100941 -0.441938,-5.26801 0.08539,-7.302187 1.974051,-7.615013 9.288052,-12.69601 16.943578,-11.770611 6.230394,0.75313 11.179797,4.734848 13.205959,10.623991 0.205817,0.598217 0.337745,1.124136 0.293173,1.168708 -0.04457,0.04457 -1.015838,0.166399 -2.158368,0.270725 -4.178685,0.381563 -8.284321,1.479559 -10.548643,2.82109 -1.653494,0.979636 -3.70497,3.066457 -4.333473,4.408135 -0.616939,1.316992 -1.013918,3.515174 -0.823975,4.562582 0.294466,1.623787 1.524644,3.344738 2.889709,4.042545 1.589988,0.812785 4.438042,1.039817 6.421842,0.511915 1.80357,-0.479941 3.571938,-1.506561 5.179421,-3.006894 1.689463,-1.576848 1.642231,-1.177088 -0.08082,0.684008 -2.264609,2.446048 -5.007092,4.075354 -8.112919,4.819873 -1.929104,0.46244 -4.482933,0.520164 -5.715923,0.129197 z M 54.062751,75.414662 c 0.469207,-0.456511 0.853103,-0.891011 0.853103,-0.965556 0,-0.07454 -0.248404,-0.184428 -0.552008,-0.244186 -0.586761,-0.115492 -1.426036,0.519146 -2.309806,1.746615 l -0.418137,0.580751 0.786873,-0.143802 c 0.530293,-0.09691 1.065049,-0.414452 1.639975,-0.973822 z m 12.279637,-3.015975 c 0.943347,-0.328752 1.177809,-1.069861 0.718748,-2.271893 -1.380207,-3.614021 -8.057202,-5.190679 -12.652409,-2.987649 -1.996132,0.956984 -3.166814,2.499254 -2.947272,3.882769 0.105809,0.666785 1.004956,0.977806 3.617655,1.251372 l 2.228399,0.233326 1.94489,-0.965223 c 1.757542,-0.872246 2.082243,-0.966327 3.37078,-0.976674 1.28358,-0.01031 1.42589,0.0276 1.42589,0.379797 0,0.225506 -0.368005,0.671935 -0.868707,1.053833 l -0.868707,0.662585 1.671627,-0.01133 c 0.919395,-0.0062 1.980992,-0.119142 2.359106,-0.250913 z M 85.32645,89.936742 c -2.945114,-0.716984 -4.631754,-4.171799 -4.073212,-8.343328 0.507432,-3.789806 2.418733,-5.614761 5.879782,-5.614155 1.915807,3.36e-4 2.903802,0.30911 3.916475,1.223999 1.468765,1.326941 2.233468,4.352074 1.424427,5.634973 -0.743049,1.178255 -1.354305,1.353498 -4.989625,1.430493 -3.621602,0.0767 -3.464234,3.84e-4 -3.053099,1.480707 0.353949,1.274418 0.947571,1.565558 3.180535,1.559881 1.69835,-0.0043 2.891895,-0.155531 4.087894,-0.517904 0.301446,-0.09133 0.351278,0.03397 0.351278,0.883332 v 0.989764 l -1.154198,0.513574 c -1.837031,0.817409 -4.076222,1.122385 -5.570257,0.758664 z m 4.074819,-8.283109 c 0.386915,-0.386915 0.297695,-2.05324 -0.1388,-2.592288 -0.324734,-0.40103 -0.593416,-0.477993 -1.856752,-0.531862 -2.219505,-0.09464 -2.829217,0.383722 -3.111192,2.440956 l -0.126658,0.92407 h 2.496263 c 1.673898,0 2.575617,-0.07935 2.737139,-0.240876 z m 53.333961,8.283109 c -1.62464,-0.395517 -3.04739,-1.758852 -3.65657,-3.50387 -0.43411,-1.24354 -0.49761,-5.183146 -0.10439,-6.47688 0.46534,-1.530988 1.43465,-2.719497 2.75731,-3.380828 1.03997,-0.519983 1.4236,-0.601741 2.81022,-0.598906 1.91771,0.0039 2.90507,0.313252 3.91648,1.227 1.48226,1.339136 2.24091,4.340295 1.42443,5.634973 -0.74371,1.179285 -1.35298,1.353477 -5.00431,1.430742 l -3.27655,0.06933 0.13836,0.835583 c 0.30366,1.833864 0.77936,2.141883 3.2979,2.135421 1.68294,-0.0043 2.87643,-0.156178 4.0703,-0.517904 0.30145,-0.09133 0.35128,0.03397 0.35128,0.883332 v 0.989764 l -1.1542,0.513574 c -1.83703,0.817409 -4.07622,1.122385 -5.57026,0.758664 z m 4.19628,-8.493875 c 0.21565,-0.334355 0.24898,-0.678291 0.12835,-1.3244 -0.23973,-1.284005 -0.57404,-1.518148 -2.27059,-1.590258 -2.19629,-0.09335 -2.7612,0.35155 -3.06371,2.412833 l -0.13993,0.953467 h 2.52729 c 2.40077,0 2.54188,-0.02261 2.81859,-0.451642 z m -49.390317,8.261554 c -0.801902,-0.232307 -1.79307,-1.352408 -2.065808,-2.334533 -0.128498,-0.462716 -0.210997,-3.515897 -0.21168,-7.833956 l -0.0011,-7.075732 0.451643,-0.0017 c 0.248403,-9.6e-4 0.925867,-0.05871 1.505475,-0.128325 l 1.053832,-0.12658 v 1.934895 1.934894 h 1.615419 1.615416 l -0.0598,1.254563 -0.0598,1.254562 -1.571182,0.05891 -1.571182,0.05891 0.06571,3.754965 c 0.0784,4.480483 0.180434,4.808684 1.621365,5.215387 l 0.953469,0.269116 v 0.991983 0.991983 l -1.354929,-0.0181 c -0.74521,-0.01 -1.639318,-0.10049 -1.986905,-0.201184 z m 5.951327,-6.49332 c 0,-3.691935 0.0677,-6.751825 0.15054,-6.799755 0.0828,-0.04793 0.6576,-0.148548 1.27733,-0.223595 l 1.12678,-0.136448 0.12679,0.79288 0.12679,0.792881 1.56895,-0.801598 c 1.20558,-0.615949 1.82179,-0.808649 2.66066,-0.832044 l 1.09172,-0.03045 0.059,1.455293 0.059,1.455292 -0.96226,0.0011 c -1.30737,0.0015 -2.39429,0.330522 -3.41734,1.034397 l -0.85696,0.58961 v 4.707511 4.707512 h -1.50548 -1.50547 z m 10.2032,6.318111 c -1.3206,-0.719728 -1.66257,-1.440659 -1.74119,-3.670713 -0.0636,-1.80448 -0.0288,-2.026099 0.4448,-2.834282 0.81148,-1.384689 1.48732,-1.613326 5.01946,-1.698085 l 2.98648,-0.07166 -0.11988,-1.012253 c -0.20598,-1.739134 -0.3924,-1.82995 -3.49451,-1.702382 l -2.65967,0.109373 v -1.046008 -1.046008 l 1.65602,-0.34322 c 3.10582,-0.643702 5.31684,-0.380662 6.46685,0.769346 1.00959,1.009595 1.11071,1.700916 1.11071,7.594155 v 5.346239 h -1.19923 c -1.12945,0 -1.21734,-0.03504 -1.51063,-0.60219 -0.17127,-0.331205 -0.34333,-0.60219 -0.38236,-0.60219 -0.039,0 -0.60126,0.243582 -1.2494,0.541294 -1.60759,0.738407 -4.22342,0.870286 -5.32745,0.268589 z m 5.50392,-2.824805 1.1542,-0.449554 v -1.276887 -1.276887 h -2.3084 c -2.83085,0 -3.11131,0.170608 -3.11131,1.892597 0,1.523361 0.31562,1.800577 1.89546,1.664788 0.66872,-0.05748 1.73524,-0.306802 2.37005,-0.554057 z m 9.85088,2.466564 c -0.51904,-1.237635 -4.68208,-12.723599 -4.68208,-12.918003 0,-0.0988 0.71346,-0.179629 1.58547,-0.179629 h 1.58548 l 0.52125,1.455293 c 0.28668,0.800411 1.05554,2.990877 1.70857,4.867702 l 1.18732,3.41241 0.28847,-0.702555 c 0.15866,-0.386405 0.94783,-2.576871 1.75372,-4.867702 l 1.46526,-4.165148 h 1.57632 c 0.89721,0 1.57632,0.08487 1.57632,0.197011 0,0.147822 -4.02407,11.021453 -4.92278,13.302081 -0.11564,0.293454 -0.40091,0.351278 -1.73303,0.351278 h -1.59461 z m 25.37533,0.470066 c -1.0312,-0.37376 -1.34904,-0.672104 -1.83729,-1.724628 -0.39646,-0.854651 -0.42234,-1.295058 -0.48065,-8.179747 l -0.0616,-7.276462 h 0.58563 c 0.32209,0 0.9974,-0.05644 1.50067,-0.125422 l 0.91506,-0.125422 0.0664,6.900059 c 0.0543,5.637878 0.12151,7.00888 0.36753,7.494957 0.3153,0.622975 0.92066,1.015041 1.86748,1.209498 0.53213,0.109289 0.55943,0.167078 0.50183,1.062524 l -0.0609,0.94695 -1.30474,0.04561 c -0.71902,0.02513 -1.64352,-0.07718 -2.05939,-0.227913 z m 5.61357,0.15681 c -0.1909,-0.190906 -0.18234,-12.673065 0.009,-12.786601 0.0828,-0.04919 0.80668,-0.154142 1.60861,-0.233227 l 1.45807,-0.143791 -0.053,6.594558 -0.053,6.594558 -1.41388,0.05814 c -0.77763,0.03198 -1.47768,-0.0057 -1.55566,-0.08364 z m 0.27509,-14.846366 c -1.03256,-0.868841 -0.78112,-2.275699 0.50258,-2.812064 1.86595,-0.779643 3.40366,1.5261 1.87538,2.812064 -0.34789,0.292723 -0.86713,0.519668 -1.18898,0.519668 -0.32186,0 -0.8411,-0.226945 -1.18898,-0.519668 z"
         id="path4"
         clip-path="url(#clipPath5)"
         transform="translate(-5.8570575,-27.76918)" />
      <g
         id="g99427"
         transform="matrix(0.37882828,0,0,0.37882828,10.383385,-17.779867)">
        <path
           style="fill:#e4e4e4;fill-opacity:1"
           d="m 88.882576,228.15923 -0.183476,-0.2167 0.216705,0.18347 c 0.203648,0.17242 0.26055,0.24994 0.183475,0.24994 -0.01828,0 -0.115793,-0.0975 -0.216704,-0.21671 z"
           id="path99492" />
        <path
           style="fill:#e4e4e4;fill-opacity:1"
           d="m 89.216537,228.49633 -0.132184,-0.16855 0.168548,0.13218 c 0.160433,0.12582 0.211453,0.20491 0.132184,0.20491 -0.02,0 -0.09585,-0.0758 -0.168548,-0.16854 z"
           id="path99491" />
        <path
           style="fill:#e3e3e3;fill-opacity:1"
           d="m 89.556767,228.83342 -0.183475,-0.2167 0.216704,0.18347 c 0.203649,0.17242 0.260551,0.24994 0.183476,0.24994 -0.01828,0 -0.115793,-0.0975 -0.216705,-0.21671 z"
           id="path99490" />
        <path
           style="fill:#e1e1e1;fill-opacity:1"
           d="m 105.29505,143.55462 c 0.0695,-0.0278 0.1526,-0.0244 0.1846,0.008 0.032,0.032 -0.0249,0.0548 -0.12641,0.0506 -0.1122,-0.005 -0.13502,-0.0274 -0.0582,-0.0582 z"
           id="path99489" />
        <path
           style="fill:#dfdfdf;fill-opacity:1"
           d="m 106.73373,236.49876 c 0.0662,-0.0267 0.17457,-0.0267 0.24078,0 0.0662,0.0267 0.012,0.0486 -0.12039,0.0486 -0.13243,0 -0.18661,-0.0219 -0.12039,-0.0486 z"
           id="path99488" />
        <path
           style="fill:#dedede;fill-opacity:1"
           d="m 107.16897,236.4958 c 0.0937,-0.0244 0.22373,-0.0228 0.28894,0.004 0.0652,0.0264 -0.0115,0.0464 -0.17038,0.0444 -0.15892,-0.002 -0.21227,-0.0236 -0.11856,-0.048 z m -1.4447,-92.94214 c 0.0937,-0.0244 0.22374,-0.0228 0.28894,0.004 0.0652,0.0264 -0.0115,0.0464 -0.17038,0.0444 -0.15892,-0.002 -0.21227,-0.0236 -0.11856,-0.048 z"
           id="path99487" />
        <path
           style="fill:#dddddd;fill-opacity:1"
           d="m 152.51413,189.89083 c 0.005,-0.1122 0.0274,-0.13503 0.0582,-0.0582 0.0278,0.0695 0.0244,0.15259 -0.008,0.1846 -0.032,0.032 -0.0548,-0.0249 -0.0506,-0.12641 z"
           id="path99486" />
        <path
           style="fill:#d9d9d9;fill-opacity:1"
           d="m 141.76762,211.13589 c 0.0959,-0.10594 0.19599,-0.19263 0.22248,-0.19263 0.0265,0 -0.0303,0.0867 -0.12617,0.19263 -0.0959,0.10595 -0.19599,0.19263 -0.22248,0.19263 -0.0265,0 0.0303,-0.0867 0.12617,-0.19263 z"
           id="path99485" />
        <path
           style="fill:#d8d8d8;fill-opacity:1"
           d="m 142.15287,210.75064 c 0.0959,-0.10595 0.19599,-0.19263 0.22248,-0.19263 0.0265,0 -0.0303,0.0867 -0.12617,0.19263 -0.0959,0.10594 -0.19599,0.19262 -0.22248,0.19262 -0.0265,0 0.0303,-0.0867 0.12617,-0.19262 z m -41.93675,-3.33083 c 0.005,-0.1122 0.0274,-0.13502 0.0582,-0.0582 0.0278,0.0695 0.0244,0.1526 -0.008,0.1846 -0.032,0.032 -0.0548,-0.0249 -0.0506,-0.12641 z m 52.29801,-17.14373 c 0.005,-0.1122 0.0274,-0.13502 0.0582,-0.0582 0.0278,0.0695 0.0244,0.1526 -0.008,0.1846 -0.032,0.032 -0.0548,-0.0249 -0.0506,-0.12641 z"
           id="path99484" />
        <path
           style="fill:#d5d5d5;fill-opacity:1"
           d="m 152.51413,190.56502 c 0.005,-0.1122 0.0274,-0.13502 0.0582,-0.0582 0.0278,0.0695 0.0244,0.15259 -0.008,0.1846 -0.032,0.032 -0.0548,-0.0249 -0.0506,-0.12641 z"
           id="path99483" />
        <path
           style="fill:#d5d5d5;fill-opacity:1"
           d="m 152.52173,190.91014 c 0,-0.13243 0.0219,-0.18661 0.0486,-0.12039 0.0267,0.0662 0.0267,0.17457 0,0.24078 -0.0267,0.0662 -0.0486,0.012 -0.0486,-0.12039 z"
           id="path99482" />
        <path
           style="fill:#d2d2d2;fill-opacity:1"
           d="m 87.687813,172.28535 c 0,-0.02 0.07585,-0.0958 0.168548,-0.16855 l 0.168548,-0.13218 -0.132185,0.16854 c -0.12582,0.16044 -0.204911,0.21146 -0.204911,0.13219 z"
           id="path99481" />
        <path
           style="fill:#cccccc;fill-opacity:1"
           d="m 73.324876,222.04335 -0.132184,-0.16855 0.168547,0.13219 c 0.0927,0.0727 0.168548,0.14854 0.168548,0.16854 0,0.0793 -0.07909,0.0282 -0.204911,-0.13218 z"
           id="path99480" />
        <path
           style="fill:#cacaca;fill-opacity:1"
           d="m 73.613815,222.33229 -0.132184,-0.16855 0.168548,0.13218 c 0.0927,0.0727 0.168548,0.14855 0.168548,0.16855 0,0.0793 -0.07909,0.0282 -0.204912,-0.13218 z"
           id="path99479" />
        <path
           style="fill:#c9c9c9;fill-opacity:1"
           d="m 73.902755,222.62123 -0.132185,-0.16855 0.168548,0.13218 c 0.160433,0.12582 0.211453,0.20492 0.132184,0.20492 -0.02,0 -0.09585,-0.0759 -0.168547,-0.16855 z"
           id="path99478" />
        <path
           style="fill:#c7c7c7;fill-opacity:1"
           d="m 75.656279,200.0037 c 0.0046,-0.1122 0.02744,-0.13502 0.05819,-0.0582 0.02782,0.0695 0.0244,0.1526 -0.0076,0.1846 -0.032,0.032 -0.05477,-0.0249 -0.05059,-0.12641 z"
           id="path99477" />
        <path
           style="fill:#c6c6c6;fill-opacity:1"
           d="m 75.676222,200.58961 c 7.24e-4,-0.26486 0.01943,-0.36179 0.04157,-0.21538 0.02214,0.1464 0.02155,0.3631 -0.0013,0.48156 -0.02286,0.11846 -0.04097,-0.001 -0.04025,-0.26618 z"
           id="path99476" />
        <path
           style="fill:#c6c6c6;fill-opacity:1"
           d="m 75.663883,201.21564 c 0,-0.13243 0.02186,-0.18661 0.04858,-0.12039 0.02672,0.0662 0.02672,0.17457 0,0.24078 -0.02672,0.0662 -0.04858,0.012 -0.04858,-0.12039 z"
           id="path99475" />
        <path
           style="fill:#c5c5c5;fill-opacity:1"
           d="m 74.531924,223.24726 -0.183475,-0.2167 0.216704,0.18347 c 0.203649,0.17243 0.26055,0.24994 0.183475,0.24994 -0.01828,0 -0.115793,-0.0975 -0.216704,-0.21671 z"
           id="path99474" />
        <path
           style="fill:#c3c3c3;fill-opacity:1"
           d="m 146.1318,179.38309 c 0.0695,-0.0278 0.1526,-0.0244 0.1846,0.008 0.032,0.032 -0.0249,0.0548 -0.12641,0.0506 -0.1122,-0.005 -0.13502,-0.0275 -0.0582,-0.0582 z"
           id="path99473" />
        <path
           style="fill:#c0c0c0;fill-opacity:1"
           d="m 145.84286,179.38309 c 0.0695,-0.0278 0.1526,-0.0244 0.1846,0.008 0.032,0.032 -0.0249,0.0548 -0.12641,0.0506 -0.1122,-0.005 -0.13502,-0.0275 -0.0582,-0.0582 z m 0.57788,0 c 0.0695,-0.0278 0.1526,-0.0244 0.1846,0.008 0.032,0.032 -0.0249,0.0548 -0.12641,0.0506 -0.1122,-0.005 -0.13502,-0.0275 -0.0582,-0.0582 z"
           id="path99472" />
        <path
           style="fill:#bebebe;fill-opacity:1"
           d="m 145.55393,179.38309 c 0.0695,-0.0278 0.15259,-0.0244 0.1846,0.008 0.032,0.032 -0.0249,0.0548 -0.12642,0.0506 -0.11219,-0.005 -0.13502,-0.0275 -0.0582,-0.0582 z M 73.096378,157.39318 c 0.09588,-0.10594 0.195995,-0.19262 0.222481,-0.19262 0.02649,0 -0.03029,0.0867 -0.126167,0.19262 -0.09588,0.10595 -0.195995,0.19263 -0.222481,0.19263 -0.02649,0 0.03029,-0.0867 0.126167,-0.19263 z"
           id="path99471" />
        <path
           style="fill:#bbbbbb;fill-opacity:1"
           d="m 146.90231,179.38309 c 0.0695,-0.0278 0.15259,-0.0244 0.1846,0.008 0.032,0.032 -0.0249,0.0548 -0.12641,0.0506 -0.1122,-0.005 -0.13502,-0.0275 -0.0582,-0.0582 z"
           id="path99470" />
        <path
           style="fill:#b9b9b9;fill-opacity:1"
           d="m 144.97003,179.38509 c 0.0662,-0.0267 0.17456,-0.0267 0.24078,0 0.0662,0.0267 0.012,0.0486 -0.12039,0.0486 -0.13243,0 -0.18661,-0.0219 -0.12039,-0.0486 z m 2.22122,-0.002 c 0.0695,-0.0278 0.15259,-0.0244 0.1846,0.008 0.032,0.032 -0.0249,0.0548 -0.12641,0.0506 -0.1122,-0.005 -0.13502,-0.0275 -0.0582,-0.0582 z M 73.674257,156.8153 c 0.09588,-0.10594 0.195995,-0.19262 0.222481,-0.19262 0.02649,0 -0.03029,0.0867 -0.126168,0.19262 -0.09588,0.10595 -0.195995,0.19263 -0.222481,0.19263 -0.02649,0 0.03029,-0.0867 0.126168,-0.19263 z"
           id="path99469" />
        <path
           style="fill:#b6b6b6;fill-opacity:1"
           d="m 144.68711,179.38309 c 0.0695,-0.0278 0.15259,-0.0244 0.1846,0.008 0.032,0.032 -0.0249,0.0548 -0.12641,0.0506 -0.1122,-0.005 -0.13502,-0.0275 -0.0582,-0.0582 z m 2.79308,0 c 0.0695,-0.0278 0.15259,-0.0244 0.1846,0.008 0.032,0.032 -0.0249,0.0548 -0.12641,0.0506 -0.1122,-0.005 -0.13502,-0.0275 -0.0582,-0.0582 z M 74.059509,156.43005 c 0.09588,-0.10594 0.195995,-0.19263 0.222481,-0.19263 0.02649,0 -0.03029,0.0867 -0.126167,0.19263 -0.09588,0.10594 -0.195995,0.19263 -0.222481,0.19263 -0.02649,0 0.03029,-0.0867 0.126167,-0.19263 z"
           id="path99468" />
        <path
           style="fill:#b3b3b3;fill-opacity:1"
           d="m 144.39817,179.38309 c 0.0695,-0.0278 0.15259,-0.0244 0.1846,0.008 0.032,0.032 -0.0249,0.0548 -0.12641,0.0506 -0.1122,-0.005 -0.13502,-0.0275 -0.0582,-0.0582 z"
           id="path99467" />
        <path
           style="fill:#b0b0b0;fill-opacity:1"
           d="m 147.96175,179.38309 c 0.0695,-0.0278 0.1526,-0.0244 0.1846,0.008 0.032,0.032 -0.0249,0.0548 -0.12641,0.0506 -0.1122,-0.005 -0.13502,-0.0275 -0.0582,-0.0582 z"
           id="path99466" />
        <path
           style="fill:#adadad;fill-opacity:1"
           d="m 139.55242,222.69346 c 0.0959,-0.10594 0.19599,-0.19262 0.22248,-0.19262 0.0265,0 -0.0303,0.0867 -0.12617,0.19262 -0.0959,0.10595 -0.196,0.19263 -0.22248,0.19263 -0.0265,0 0.0303,-0.0867 0.12617,-0.19263 z"
           id="path99465" />
        <path
           style="fill:#ababab;fill-opacity:1"
           d="m 139.11901,223.13866 c 0,-0.02 0.0758,-0.0958 0.16854,-0.16854 l 0.16855,-0.13219 -0.13218,0.16855 c -0.12582,0.16043 -0.20491,0.21145 -0.20491,0.13218 z"
           id="path99464" />
        <path
           style="fill:#ababab;fill-opacity:1"
           d="m 138.83007,223.41581 c 0.12441,-0.13243 0.24787,-0.24078 0.27436,-0.24078 0.0265,0 -0.0536,0.10835 -0.17805,0.24078 -0.12441,0.13243 -0.24787,0.24078 -0.27436,0.24078 -0.0265,0 0.0536,-0.10835 0.17805,-0.24078 z m -34.92265,-7.39203 -0.18348,-0.2167 0.21671,0.18347 c 0.20365,0.17242 0.26055,0.24993 0.18347,0.24993 -0.0183,0 -0.11579,-0.0975 -0.2167,-0.2167 z"
           id="path99463" />
        <path
           style="fill:#a8a8a8;fill-opacity:1"
           d="m 88.887195,228.06292 -0.380721,-0.40933 0.409331,0.38072 c 0.225132,0.20939 0.40933,0.39359 0.40933,0.40933 0,0.0729 -0.08387,-5e-5 -0.43794,-0.38072 z"
           id="path99462" />
        <path
           style="fill:#a7a7a7;fill-opacity:1"
           d="m 89.559859,228.73711 -0.28288,-0.31302 0.313017,0.28288 c 0.291777,0.26369 0.357288,0.34316 0.282881,0.34316 -0.01658,0 -0.157434,-0.14086 -0.313018,-0.31302 z"
           id="path99461" />
        <path
           style="fill:#a6a6a6;fill-opacity:1"
           d="m 86.282122,227.77398 -0.183475,-0.21671 0.216704,0.18348 c 0.203649,0.17242 0.26055,0.24993 0.183475,0.24993 -0.01828,0 -0.115793,-0.0975 -0.216704,-0.2167 z"
           id="path99460" />
        <path
           style="fill:#a5a5a5;fill-opacity:1"
           d="m 104.83154,236.41078 c -0.23837,-0.0201 -1.04018,-0.0845 -1.78179,-0.14317 l -1.34838,-0.10668 -0.86682,-0.29147 c -8.84362,-2.97368 -17.426193,-12.1979 -19.697369,-21.16998 -1.390932,-5.49476 -1.257831,-11.76921 0.402494,-18.97369 2.866399,-12.43787 8.88495,-18.17144 30.563505,-29.11631 7.08212,-3.57556 9.61757,-6.0827 7.22253,-7.14191 -4.65265,-2.05762 -13.74478,-0.0498 -21.660191,4.78327 l -1.261371,0.77018 -7.849517,-0.059 c -4.317235,-0.0324 -8.391279,-0.0842 -9.053432,-0.11495 l -1.203913,-0.056 -0.998886,1.07291 c -0.549387,0.59009 -0.979376,1.09241 -0.955531,1.11625 0.02384,0.0239 3.052126,0.65135 6.729515,1.39445 3.677388,0.7431 6.764841,1.37556 6.861006,1.40546 l 0.174845,0.0544 -1.733541,1.74922 c -1.772186,1.78822 -2.633195,2.74463 -3.808525,4.2305 -0.366114,0.46284 -0.69117,0.84246 -0.722349,0.8436 -1.429967,0.0522 -4.875753,0.3007 -4.928445,0.35544 -0.165366,0.17178 -1.323665,1.71394 -1.302909,1.7347 0.01237,0.0124 0.920572,0.23434 2.018224,0.49327 1.097653,0.25892 2.016568,0.49161 2.042035,0.51707 0.02547,0.0255 -0.231212,0.52378 -0.570397,1.10737 -11.662233,20.06538 -3.822124,46.22965 16.286975,54.35343 1.006201,0.40649 0.976109,0.41998 -0.313615,0.14059 C 61.402644,227.63215 47.978267,182.6614 73.671031,156.95571 98.81104,131.80306 142.90665,144.50424 151.09337,179.25624 l 0.0567,0.24079 -2.52419,-0.0879 c -25.0228,-0.87081 -47.69946,12.01502 -48.38657,27.4953 l -0.058,1.3066 0.16553,1.00491 c 1.67012,10.13913 13.3234,13.95557 28.79673,9.4309 13.2198,-3.86569 22.83263,-17.4089 22.98379,-32.38113 0.0118,-1.16841 0.16879,-0.23507 0.28908,1.71858 1.65626,26.90033 -21.64188,50.61048 -47.58492,48.42643 z"
           id="path99459" />
        <path
           style="fill:#a4a4a4;fill-opacity:1"
           d="m 89.469605,180.79726 c 0.09588,-0.10594 0.195995,-0.19262 0.222481,-0.19262 0.02649,0 -0.03029,0.0867 -0.126168,0.19262 -0.09588,0.10595 -0.195995,0.19263 -0.222481,0.19263 -0.02649,0 0.03029,-0.0867 0.126168,-0.19263 z m 0.674192,-0.67419 c 0.09588,-0.10594 0.195994,-0.19262 0.222481,-0.19262 0.02649,0 -0.03029,0.0867 -0.126168,0.19262 -0.09588,0.10595 -0.195995,0.19263 -0.222481,0.19263 -0.02649,0 0.03029,-0.0867 0.126168,-0.19263 z"
           id="path99458" />
        <path
           style="fill:#a2a2a2;fill-opacity:1"
           d="m 90.384579,179.89408 c 0,-0.02 0.07585,-0.0958 0.168548,-0.16854 l 0.168548,-0.13219 -0.132184,0.16855 c -0.125821,0.16043 -0.204912,0.21145 -0.204912,0.13218 z M 79.097888,164.83981 c 0.06953,-0.0278 0.152596,-0.0244 0.1846,0.008 0.032,0.032 -0.02488,0.0548 -0.12641,0.0506 -0.1122,-0.005 -0.135022,-0.0274 -0.05819,-0.0582 z"
           id="path99457" />
        <path
           style="fill:#9d9d9d;fill-opacity:1"
           d="m 87.958693,164.93612 c 0.06953,-0.0278 0.152596,-0.0244 0.1846,0.008 0.032,0.032 -0.02488,0.0548 -0.126411,0.0506 -0.112199,-0.005 -0.135021,-0.0274 -0.05819,-0.0582 z"
           id="path99456" />
        <path
           style="fill:#9a9a9a;fill-opacity:1"
           d="m 79.219864,203.75991 c 0.0046,-0.1122 0.02744,-0.13502 0.05819,-0.0582 0.02782,0.0695 0.0244,0.1526 -0.0076,0.1846 -0.032,0.032 -0.05477,-0.0249 -0.05058,-0.12641 z"
           id="path99455" />
        <path
           style="fill:#979797;fill-opacity:1"
           d="m 79.219864,203.47097 c 0.0046,-0.1122 0.02744,-0.13502 0.05819,-0.0582 0.02782,0.0695 0.0244,0.1526 -0.0076,0.1846 -0.032,0.032 -0.05477,-0.0249 -0.05058,-0.12641 z m 8.257264,-38.53485 c 0.06953,-0.0278 0.152596,-0.0244 0.1846,0.008 0.032,0.032 -0.02488,0.0548 -0.126411,0.0506 -0.112199,-0.005 -0.135021,-0.0274 -0.05819,-0.0582 z m -9.053431,-0.0963 c 0.06953,-0.0278 0.152596,-0.0244 0.1846,0.008 0.032,0.032 -0.02488,0.0548 -0.126411,0.0506 -0.112199,-0.005 -0.135021,-0.0274 -0.05819,-0.0582 z"
           id="path99454" />
        <path
           style="fill:#929292;fill-opacity:1"
           d="m 79.219864,203.18203 c 0.0046,-0.1122 0.02744,-0.13502 0.05819,-0.0582 0.02782,0.0695 0.0244,0.1526 -0.0076,0.1846 -0.032,0.032 -0.05477,-0.0249 -0.05058,-0.12641 z m 7.968325,-38.24591 c 0.06953,-0.0278 0.152596,-0.0244 0.1846,0.008 0.032,0.032 -0.02488,0.0548 -0.126411,0.0506 -0.1122,-0.005 -0.135022,-0.0274 -0.05819,-0.0582 z"
           id="path99453" />
        <path
           style="fill:#8f8f8f;fill-opacity:1"
           d="m 96.048993,165.03244 c 0.06953,-0.0278 0.152597,-0.0244 0.184601,0.008 0.032,0.032 -0.02488,0.0548 -0.126411,0.0506 -0.1122,-0.005 -0.135022,-0.0275 -0.05819,-0.0582 z"
           id="path99452" />
        <path
           style="fill:#8b8b8b;fill-opacity:1"
           d="m 79.219864,202.70047 c 0.0046,-0.1122 0.02744,-0.13502 0.05819,-0.0582 0.02782,0.0695 0.0244,0.1526 -0.0076,0.1846 -0.032,0.032 -0.05477,-0.0249 -0.05058,-0.12641 z"
           id="path99451" />
        <path
           style="fill:#888888;fill-opacity:1"
           d="m 86.513997,164.93612 c 0.06953,-0.0278 0.152596,-0.0244 0.1846,0.008 0.032,0.032 -0.02488,0.0548 -0.126411,0.0506 -0.112199,-0.005 -0.135021,-0.0274 -0.05819,-0.0582 z"
           id="path99450" />
        <path
           style="fill:#858585;fill-opacity:1"
           d="m 80.086682,206.07143 c 0.0046,-0.1122 0.02744,-0.13502 0.05819,-0.0582 0.02782,0.0695 0.0244,0.15259 -0.0076,0.1846 -0.032,0.032 -0.05477,-0.0249 -0.05058,-0.12641 z m 15.28812,-41.03899 c 0.06953,-0.0278 0.152596,-0.0244 0.1846,0.008 0.032,0.032 -0.02488,0.0548 -0.126411,0.0506 -0.112199,-0.005 -0.135021,-0.0275 -0.05819,-0.0582 z"
           id="path99449" />
        <path
           style="fill:#818181;fill-opacity:1"
           d="m 95.085863,165.03244 c 0.06953,-0.0278 0.152596,-0.0244 0.1846,0.008 0.032,0.032 -0.02488,0.0548 -0.126411,0.0506 -0.1122,-0.005 -0.135022,-0.0275 -0.05819,-0.0582 z m -9.053432,-0.0963 c 0.06953,-0.0278 0.152596,-0.0244 0.1846,0.008 0.032,0.032 -0.02488,0.0548 -0.12641,0.0506 -0.1122,-0.005 -0.135022,-0.0274 -0.05819,-0.0582 z"
           id="path99448" />
        <path
           style="fill:#7e7e7e;fill-opacity:1"
           d="m 85.743492,164.93612 c 0.06953,-0.0278 0.152596,-0.0244 0.1846,0.008 0.032,0.032 -0.02488,0.0548 -0.126411,0.0506 -0.112199,-0.005 -0.135021,-0.0274 -0.05819,-0.0582 z"
           id="path99447" />
        <path
           style="fill:#7a7a7a;fill-opacity:1"
           d="m 94.604297,165.03244 c 0.06953,-0.0278 0.152596,-0.0244 0.1846,0.008 0.032,0.032 -0.02488,0.0548 -0.126411,0.0506 -0.112199,-0.005 -0.135021,-0.0275 -0.05819,-0.0582 z"
           id="path99446" />
        <path
           style="fill:#767676;fill-opacity:1"
           d="m 94.315358,165.03244 c 0.06953,-0.0278 0.152596,-0.0244 0.1846,0.008 0.032,0.032 -0.02488,0.0548 -0.126411,0.0506 -0.112199,-0.005 -0.135021,-0.0275 -0.05819,-0.0582 z m -9.053431,-0.0963 c 0.06953,-0.0278 0.152596,-0.0244 0.1846,0.008 0.032,0.032 -0.02488,0.0548 -0.126411,0.0506 -0.1122,-0.005 -0.135022,-0.0274 -0.05819,-0.0582 z"
           id="path99445" />
        <path
           style="fill:#727272;fill-opacity:1"
           d="m 80.097854,207.23521 c 0.002,-0.15892 0.02355,-0.21227 0.04797,-0.11856 0.02442,0.0937 0.02281,0.22373 -0.0036,0.28894 -0.02638,0.0652 -0.04636,-0.0115 -0.0444,-0.17038 z"
           id="path99444" />
        <path
           style="fill:#6f6f6f;fill-opacity:1"
           d="m 93.833792,165.03244 c 0.06953,-0.0278 0.152596,-0.0244 0.1846,0.008 0.032,0.032 -0.02488,0.0548 -0.126411,0.0506 -0.112199,-0.005 -0.135021,-0.0275 -0.05819,-0.0582 z m -9.053431,-0.0963 c 0.06953,-0.0278 0.152596,-0.0244 0.1846,0.008 0.032,0.032 -0.02488,0.0548 -0.126411,0.0506 -0.112199,-0.005 -0.135021,-0.0274 -0.05819,-0.0582 z"
           id="path99443" />
        <path
           style="fill:#6a6a6a;fill-opacity:1"
           d="m 93.544853,165.03244 c 0.06953,-0.0278 0.152596,-0.0244 0.1846,0.008 0.032,0.032 -0.02488,0.0548 -0.126411,0.0506 -0.112199,-0.005 -0.135021,-0.0275 -0.05819,-0.0582 z m -9.053431,-0.0963 c 0.06953,-0.0278 0.152596,-0.0244 0.1846,0.008 0.032,0.032 -0.02488,0.0548 -0.126411,0.0506 -0.112199,-0.005 -0.135021,-0.0274 -0.05819,-0.0582 z"
           id="path99442" />
        <path
           style="fill:#666666;fill-opacity:1"
           d="m 84.202483,164.93612 c 0.06953,-0.0278 0.152596,-0.0244 0.1846,0.008 0.032,0.032 -0.02488,0.0548 -0.126411,0.0506 -0.1122,-0.005 -0.135022,-0.0274 -0.05819,-0.0582 z"
           id="path99441" />
        <path
           style="fill:#636363;fill-opacity:1"
           d="m 93.063287,165.03244 c 0.06953,-0.0278 0.152597,-0.0244 0.184601,0.008 0.032,0.032 -0.02488,0.0548 -0.126411,0.0506 -0.1122,-0.005 -0.135022,-0.0275 -0.05819,-0.0582 z"
           id="path99440" />
        <path
           style="fill:#606060;fill-opacity:1"
           d="m 83.720917,164.93612 c 0.06953,-0.0278 0.152596,-0.0244 0.1846,0.008 0.032,0.032 -0.02488,0.0548 -0.126411,0.0506 -0.112199,-0.005 -0.135021,-0.0274 -0.05819,-0.0582 z"
           id="path99439" />
        <path
           style="fill:#5c5c5c;fill-opacity:1"
           d="m 92.581722,165.03244 c 0.06953,-0.0278 0.152596,-0.0244 0.1846,0.008 0.032,0.032 -0.02488,0.0548 -0.126411,0.0506 -0.112199,-0.005 -0.135021,-0.0275 -0.05819,-0.0582 z"
           id="path99438" />
        <path
           style="fill:#585858;fill-opacity:1"
           d="m 83.239352,164.93612 c 0.06953,-0.0278 0.152596,-0.0244 0.1846,0.008 0.032,0.032 -0.02488,0.0548 -0.126411,0.0506 -0.1122,-0.005 -0.135022,-0.0274 -0.05819,-0.0582 z"
           id="path99437" />
        <path
           style="fill:#555555;fill-opacity:1"
           d="m 92.100157,165.03244 c 0.06953,-0.0278 0.152596,-0.0244 0.1846,0.008 0.032,0.032 -0.02488,0.0548 -0.126411,0.0506 -0.1122,-0.005 -0.135022,-0.0275 -0.05819,-0.0582 z"
           id="path99436" />
        <path
           style="fill:#515151;fill-opacity:1"
           d="m 91.811217,165.03244 c 0.06953,-0.0278 0.152596,-0.0244 0.1846,0.008 0.032,0.032 -0.02488,0.0548 -0.126411,0.0506 -0.112199,-0.005 -0.135021,-0.0275 -0.05819,-0.0582 z m -9.053431,-0.0963 c 0.06953,-0.0278 0.152596,-0.0244 0.1846,0.008 0.032,0.032 -0.02488,0.0548 -0.126411,0.0506 -0.112199,-0.005 -0.135021,-0.0274 -0.05819,-0.0582 z"
           id="path99435" />
        <path
           style="fill:#4d4d4d;fill-opacity:1"
           d="m 91.522278,165.03244 c 0.06953,-0.0278 0.152596,-0.0244 0.1846,0.008 0.032,0.032 -0.02488,0.0548 -0.126411,0.0506 -0.112199,-0.005 -0.135021,-0.0275 -0.05819,-0.0582 z m -9.053431,-0.0963 c 0.06953,-0.0278 0.152596,-0.0244 0.1846,0.008 0.032,0.032 -0.02488,0.0548 -0.126411,0.0506 -0.112199,-0.005 -0.135021,-0.0274 -0.05819,-0.0582 z"
           id="path99434" />
        <path
           style="fill:#494949;fill-opacity:1"
           d="m 82.179907,164.93612 c 0.06953,-0.0278 0.152597,-0.0244 0.184601,0.008 0.032,0.032 -0.02488,0.0548 -0.126411,0.0506 -0.1122,-0.005 -0.135022,-0.0274 -0.05819,-0.0582 z"
           id="path99433" />
        <path
           style="fill:#454545;fill-opacity:1"
           d="m 91.040712,165.03244 c 0.06953,-0.0278 0.152596,-0.0244 0.184601,0.008 0.032,0.032 -0.02488,0.0548 -0.126411,0.0506 -0.1122,-0.005 -0.135022,-0.0275 -0.05819,-0.0582 z m -9.149744,-0.0963 c 0.06953,-0.0278 0.152596,-0.0244 0.1846,0.008 0.032,0.032 -0.02488,0.0548 -0.126411,0.0506 -0.112199,-0.005 -0.135021,-0.0274 -0.05819,-0.0582 z"
           id="path99432" />
        <path
           style="fill:#424242;fill-opacity:1"
           d="m 90.751773,165.03244 c 0.06953,-0.0278 0.152596,-0.0244 0.1846,0.008 0.032,0.032 -0.02488,0.0548 -0.126411,0.0506 -0.112199,-0.005 -0.135021,-0.0275 -0.05819,-0.0582 z"
           id="path99431" />
        <path
           style="fill:#3d3d3d;fill-opacity:1"
           d="m 90.462834,165.03244 c 0.06953,-0.0278 0.152596,-0.0244 0.1846,0.008 0.032,0.032 -0.02488,0.0548 -0.126411,0.0506 -0.112199,-0.005 -0.135021,-0.0275 -0.05819,-0.0582 z m -9.053431,-0.0963 c 0.06953,-0.0278 0.152596,-0.0244 0.1846,0.008 0.032,0.032 -0.02488,0.0548 -0.126411,0.0506 -0.112199,-0.005 -0.135021,-0.0274 -0.05819,-0.0582 z"
           id="path99430" />
        <path
           style="fill:#3a3a3a;fill-opacity:1"
           d="m 81.120463,164.93612 c 0.06953,-0.0278 0.152596,-0.0244 0.184601,0.008 0.032,0.032 -0.02488,0.0548 -0.126411,0.0506 -0.1122,-0.005 -0.135022,-0.0274 -0.05819,-0.0582 z"
           id="path99429" />
        <path
           style="fill:#363636;fill-opacity:1"
           d="m 89.981268,165.03244 c 0.06953,-0.0278 0.152596,-0.0244 0.1846,0.008 0.032,0.032 -0.02488,0.0548 -0.12641,0.0506 -0.1122,-0.005 -0.135022,-0.0275 -0.05819,-0.0582 z"
           id="path99428" />
        <path
           style="fill:#333333;fill-opacity:1"
           d="m 80.385227,212.32226 c -2.42871,-10.31141 -0.773458,-21.61898 4.518329,-30.86622 0.611502,-1.06858 0.984099,-0.86069 -3.331625,-1.85892 -4.307091,-0.99624 -3.923965,-0.78861 -3.205856,-1.7374 l 0.583169,-0.77051 0.348213,-0.0649 c 0.191517,-0.0357 2.232925,-0.16124 4.536464,-0.27904 l 4.188252,-0.21419 1.882184,-1.888 c 1.035201,-1.0384 2.43356,-2.36365 3.107465,-2.94501 0.673905,-0.58135 1.225058,-1.07977 1.224786,-1.1076 -2.73e-4,-0.0278 -3.955129,-0.8479 -8.78857,-1.82239 -10.243074,-2.06515 -9.147939,-1.67314 -8.044235,-2.87943 l 0.893483,-0.97653 3.708054,0.0496 c 2.03943,0.0273 7.170948,0.089 11.403375,0.13719 l 7.695325,0.0876 1.16548,-0.70577 c 7.91229,-4.79134 16.38547,-6.82092 17.8587,-4.27769 l 0.14922,0.2576 -0.17718,0.39293 c -0.70953,1.57345 -3.3655,3.31917 -10.742,7.0605 -15.999731,8.11499 -21.807935,12.92159 -25.693094,21.26239 -3.02612,6.49659 -4.339195,16.36914 -3.099425,23.30349 0.248433,1.38955 0.167211,1.31858 -0.180514,-0.15773 z"
           id="path99427" />
      </g>
    </g>
  </g>
</svg>
