<?xml version="1.0" encoding="UTF-8" standalone="no"?>
<!-- Created with Inkscape (http://www.inkscape.org/) -->

<svg
   width="83.038292mm"
   height="20.248472mm"
   viewBox="0 0 83.038294 20.248472"
   version="1.1"
   id="svg1"
   inkscape:version="1.4.2 (f4327f4, 2025-05-13)"
   sodipodi:docname="etraveli-w.svg"
   xmlns:inkscape="http://www.inkscape.org/namespaces/inkscape"
   xmlns:sodipodi="http://sodipodi.sourceforge.net/DTD/sodipodi-0.dtd"
   xmlns="http://www.w3.org/2000/svg"
   xmlns:svg="http://www.w3.org/2000/svg">
  <sodipodi:namedview
     id="namedview1"
     pagecolor="#ffffff"
     bordercolor="#000000"
     borderopacity="0.25"
     inkscape:showpageshadow="2"
     inkscape:pageopacity="0.0"
     inkscape:pagecheckerboard="0"
     inkscape:deskcolor="#d1d1d1"
     inkscape:document-units="mm"
     inkscape:zoom="0.52203984"
     inkscape:cx="155.16057"
     inkscape:cy="63.213566"
     inkscape:window-width="1440"
     inkscape:window-height="830"
     inkscape:window-x="-6"
     inkscape:window-y="-6"
     inkscape:window-maximized="1"
     inkscape:current-layer="layer1" />
  <defs
     id="defs1">
    <clipPath
       clipPathUnits="userSpaceOnUse"
       id="clipPath5">
      <rect
         style="fill:#000000;stroke-width:0.203"
         id="rect6"
         width="83.144173"
         height="20.248472"
         x="80.27713"
         y="71.317635" />
    </clipPath>
  </defs>
  <g
     inkscape:label="Layer 1"
     inkscape:groupmode="layer"
     id="layer1"
     transform="translate(-86.420906,-119.66539)">
    <path
       style="fill:#ffffff;fill-opacity:1"
       d="m 57.224249,96.467076 c -3.312943,-1.050496 -5.909527,-4.108873 -6.838232,-8.054389 -0.492447,-2.092115 -0.312882,-5.503456 0.401214,-7.622193 0.297677,-0.883212 0.719765,-1.910792 0.937974,-2.283511 0.450382,-0.769291 0.46277,-0.727512 -0.267666,-0.902681 -0.510221,-0.122359 -0.590196,-0.04723 -1.167876,1.097149 -3.006653,5.956146 -0.933292,13.742877 4.506353,16.9241 0.72832,0.425937 1.324218,0.802821 1.324218,0.83752 0,0.145382 -2.200637,-0.588521 -3.347702,-1.116444 -4.395799,-2.023112 -7.715887,-6.116997 -8.793233,-10.842628 -0.47897,-2.100941 -0.441938,-5.26801 0.08539,-7.302187 1.974051,-7.615013 9.288052,-12.69601 16.943578,-11.770611 6.230394,0.75313 11.179797,4.734848 13.205959,10.623991 0.205817,0.598217 0.337745,1.124136 0.293173,1.168708 -0.04457,0.04457 -1.015838,0.166399 -2.158368,0.270725 -4.178685,0.381563 -8.284321,1.479559 -10.548643,2.82109 -1.653494,0.979636 -3.70497,3.066457 -4.333473,4.408135 -0.616939,1.316992 -1.013918,3.515174 -0.823975,4.562582 0.294466,1.623787 1.524644,3.344738 2.889709,4.042545 1.589988,0.812785 4.438042,1.039817 6.421842,0.511915 1.80357,-0.479941 3.571938,-1.506561 5.179421,-3.006894 1.689463,-1.576848 1.642231,-1.177088 -0.08082,0.684008 -2.264609,2.446048 -5.007092,4.075354 -8.112919,4.819873 -1.929104,0.46244 -4.482933,0.520164 -5.715923,0.129197 z M 54.062751,75.414662 c 0.469207,-0.456511 0.853103,-0.891011 0.853103,-0.965556 0,-0.07454 -0.248404,-0.184428 -0.552008,-0.244186 -0.586761,-0.115492 -1.426036,0.519146 -2.309806,1.746615 l -0.418137,0.580751 0.786873,-0.143802 c 0.530293,-0.09691 1.065049,-0.414452 1.639975,-0.973822 z m 12.279637,-3.015975 c 0.943347,-0.328752 1.177809,-1.069861 0.718748,-2.271893 -1.380207,-3.614021 -8.057202,-5.190679 -12.652409,-2.987649 -1.996132,0.956984 -3.166814,2.499254 -2.947272,3.882769 0.105809,0.666785 1.004956,0.977806 3.617655,1.251372 l 2.228399,0.233326 1.94489,-0.965223 c 1.757542,-0.872246 2.082243,-0.966327 3.37078,-0.976674 1.28358,-0.01031 1.42589,0.0276 1.42589,0.379797 0,0.225506 -0.368005,0.671935 -0.868707,1.053833 l -0.868707,0.662585 1.671627,-0.01133 c 0.919395,-0.0062 1.980992,-0.119142 2.359106,-0.250913 z M 85.32645,89.936742 c -2.945114,-0.716984 -4.631754,-4.171799 -4.073212,-8.343328 0.507432,-3.789806 2.418733,-5.614761 5.879782,-5.614155 1.915807,3.36e-4 2.903802,0.30911 3.916475,1.223999 1.468765,1.326941 2.233468,4.352074 1.424427,5.634973 -0.743049,1.178255 -1.354305,1.353498 -4.989625,1.430493 -3.621602,0.0767 -3.464234,3.84e-4 -3.053099,1.480707 0.353949,1.274418 0.947571,1.565558 3.180535,1.559881 1.69835,-0.0043 2.891895,-0.155531 4.087894,-0.517904 0.301446,-0.09133 0.351278,0.03397 0.351278,0.883332 v 0.989764 l -1.154198,0.513574 c -1.837031,0.817409 -4.076222,1.122385 -5.570257,0.758664 z m 4.074819,-8.283109 c 0.386915,-0.386915 0.297695,-2.05324 -0.1388,-2.592288 -0.324734,-0.40103 -0.593416,-0.477993 -1.856752,-0.531862 -2.219505,-0.09464 -2.829217,0.383722 -3.111192,2.440956 l -0.126658,0.92407 h 2.496263 c 1.673898,0 2.575617,-0.07935 2.737139,-0.240876 z m 53.333961,8.283109 c -1.62464,-0.395517 -3.04739,-1.758852 -3.65657,-3.50387 -0.43411,-1.24354 -0.49761,-5.183146 -0.10439,-6.47688 0.46534,-1.530988 1.43465,-2.719497 2.75731,-3.380828 1.03997,-0.519983 1.4236,-0.601741 2.81022,-0.598906 1.91771,0.0039 2.90507,0.313252 3.91648,1.227 1.48226,1.339136 2.24091,4.340295 1.42443,5.634973 -0.74371,1.179285 -1.35298,1.353477 -5.00431,1.430742 l -3.27655,0.06933 0.13836,0.835583 c 0.30366,1.833864 0.77936,2.141883 3.2979,2.135421 1.68294,-0.0043 2.87643,-0.156178 4.0703,-0.517904 0.30145,-0.09133 0.35128,0.03397 0.35128,0.883332 v 0.989764 l -1.1542,0.513574 c -1.83703,0.817409 -4.07622,1.122385 -5.57026,0.758664 z m 4.19628,-8.493875 c 0.21565,-0.334355 0.24898,-0.678291 0.12835,-1.3244 -0.23973,-1.284005 -0.57404,-1.518148 -2.27059,-1.590258 -2.19629,-0.09335 -2.7612,0.35155 -3.06371,2.412833 l -0.13993,0.953467 h 2.52729 c 2.40077,0 2.54188,-0.02261 2.81859,-0.451642 z m -49.390317,8.261554 c -0.801902,-0.232307 -1.79307,-1.352408 -2.065808,-2.334533 -0.128498,-0.462716 -0.210997,-3.515897 -0.21168,-7.833956 l -0.0011,-7.075732 0.451643,-0.0017 c 0.248403,-9.6e-4 0.925867,-0.05871 1.505475,-0.128325 l 1.053832,-0.12658 v 1.934895 1.934894 h 1.615419 1.615416 l -0.0598,1.254563 -0.0598,1.254562 -1.571182,0.05891 -1.571182,0.05891 0.06571,3.754965 c 0.0784,4.480483 0.180434,4.808684 1.621365,5.215387 l 0.953469,0.269116 v 0.991983 0.991983 l -1.354929,-0.0181 c -0.74521,-0.01 -1.639318,-0.10049 -1.986905,-0.201184 z m 5.951327,-6.49332 c 0,-3.691935 0.0677,-6.751825 0.15054,-6.799755 0.0828,-0.04793 0.6576,-0.148548 1.27733,-0.223595 l 1.12678,-0.136448 0.12679,0.79288 0.12679,0.792881 1.56895,-0.801598 c 1.20558,-0.615949 1.82179,-0.808649 2.66066,-0.832044 l 1.09172,-0.03045 0.059,1.455293 0.059,1.455292 -0.96226,0.0011 c -1.30737,0.0015 -2.39429,0.330522 -3.41734,1.034397 l -0.85696,0.58961 v 4.707511 4.707512 h -1.50548 -1.50547 z m 10.2032,6.318111 c -1.3206,-0.719728 -1.66257,-1.440659 -1.74119,-3.670713 -0.0636,-1.80448 -0.0288,-2.026099 0.4448,-2.834282 0.81148,-1.384689 1.48732,-1.613326 5.01946,-1.698085 l 2.98648,-0.07166 -0.11988,-1.012253 c -0.20598,-1.739134 -0.3924,-1.82995 -3.49451,-1.702382 l -2.65967,0.109373 v -1.046008 -1.046008 l 1.65602,-0.34322 c 3.10582,-0.643702 5.31684,-0.380662 6.46685,0.769346 1.00959,1.009595 1.11071,1.700916 1.11071,7.594155 v 5.346239 h -1.19923 c -1.12945,0 -1.21734,-0.03504 -1.51063,-0.60219 -0.17127,-0.331205 -0.34333,-0.60219 -0.38236,-0.60219 -0.039,0 -0.60126,0.243582 -1.2494,0.541294 -1.60759,0.738407 -4.22342,0.870286 -5.32745,0.268589 z m 5.50392,-2.824805 1.1542,-0.449554 v -1.276887 -1.276887 h -2.3084 c -2.83085,0 -3.11131,0.170608 -3.11131,1.892597 0,1.523361 0.31562,1.800577 1.89546,1.664788 0.66872,-0.05748 1.73524,-0.306802 2.37005,-0.554057 z m 9.85088,2.466564 c -0.51904,-1.237635 -4.68208,-12.723599 -4.68208,-12.918003 0,-0.0988 0.71346,-0.179629 1.58547,-0.179629 h 1.58548 l 0.52125,1.455293 c 0.28668,0.800411 1.05554,2.990877 1.70857,4.867702 l 1.18732,3.41241 0.28847,-0.702555 c 0.15866,-0.386405 0.94783,-2.576871 1.75372,-4.867702 l 1.46526,-4.165148 h 1.57632 c 0.89721,0 1.57632,0.08487 1.57632,0.197011 0,0.147822 -4.02407,11.021453 -4.92278,13.302081 -0.11564,0.293454 -0.40091,0.351278 -1.73303,0.351278 h -1.59461 z m 25.37533,0.470066 c -1.0312,-0.37376 -1.34904,-0.672104 -1.83729,-1.724628 -0.39646,-0.854651 -0.42234,-1.295058 -0.48065,-8.179747 l -0.0616,-7.276462 h 0.58563 c 0.32209,0 0.9974,-0.05644 1.50067,-0.125422 l 0.91506,-0.125422 0.0664,6.900059 c 0.0543,5.637878 0.12151,7.00888 0.36753,7.494957 0.3153,0.622975 0.92066,1.015041 1.86748,1.209498 0.53213,0.109289 0.55943,0.167078 0.50183,1.062524 l -0.0609,0.94695 -1.30474,0.04561 c -0.71902,0.02513 -1.64352,-0.07718 -2.05939,-0.227913 z m 5.61357,0.15681 c -0.1909,-0.190906 -0.18234,-12.673065 0.009,-12.786601 0.0828,-0.04919 0.80668,-0.154142 1.60861,-0.233227 l 1.45807,-0.143791 -0.053,6.594558 -0.053,6.594558 -1.41388,0.05814 c -0.77763,0.03198 -1.47768,-0.0057 -1.55566,-0.08364 z m 0.27509,-14.846366 c -1.03256,-0.868841 -0.78112,-2.275699 0.50258,-2.812064 1.86595,-0.779643 3.40366,1.5261 1.87538,2.812064 -0.34789,0.292723 -0.86713,0.519668 -1.18898,0.519668 -0.32186,0 -0.8411,-0.226945 -1.18898,-0.519668 z"
       id="path4"
       clip-path="url(#clipPath5)"
       transform="translate(6.1437755,48.347751)" />
  </g>
</svg>
