<?xml version="1.0" encoding="UTF-8" standalone="no"?>
<!-- Created with Inkscape (http://www.inkscape.org/) -->

<svg
   width="23.677731mm"
   height="3.43309mm"
   viewBox="0 0 23.677731 3.43309"
   version="1.1"
   id="svg1"
   inkscape:version="1.4.2 (f4327f4, 2025-05-13)"
   sodipodi:docname="humblebee-g.svg"
   xmlns:inkscape="http://www.inkscape.org/namespaces/inkscape"
   xmlns:sodipodi="http://sodipodi.sourceforge.net/DTD/sodipodi-0.dtd"
   xmlns="http://www.w3.org/2000/svg"
   xmlns:svg="http://www.w3.org/2000/svg">
  <sodipodi:namedview
     id="namedview1"
     pagecolor="#ffffff"
     bordercolor="#000000"
     borderopacity="0.25"
     inkscape:showpageshadow="2"
     inkscape:pageopacity="0.0"
     inkscape:pagecheckerboard="0"
     inkscape:deskcolor="#d1d1d1"
     inkscape:document-units="mm"
     inkscape:zoom="4.1763187"
     inkscape:cx="19.155626"
     inkscape:cy="26.099541"
     inkscape:window-width="1440"
     inkscape:window-height="830"
     inkscape:window-x="-6"
     inkscape:window-y="-6"
     inkscape:window-maximized="1"
     inkscape:current-layer="layer1" />
  <defs
     id="defs1" />
  <g
     inkscape:label="Layer 1"
     inkscape:groupmode="layer"
     id="layer1"
     transform="translate(-70.379167,-130.175)">
    <path
       style="fill:#333333;stroke-width:0.304112;fill-opacity:1"
       d="m 71.396447,133.31306 -0.42722,-0.29503 0.45595,-0.0329 c 0.25079,-0.0182 0.66114,-0.0182 0.91193,0 l 0.45595,0.0329 -0.42722,0.29503 c -0.23497,0.16227 -0.45308,0.29503 -0.48469,0.29503 -0.0316,0 -0.24973,-0.13276 -0.4847,-0.29503 z m -0.83848,-0.84933 c -0.0393,-0.0394 -0.0715,-0.1359 -0.0715,-0.21458 0,-0.11215 0.31354,-0.14304 1.45211,-0.14304 1.41886,0 1.44948,0.004 1.33727,0.21457 -0.10487,0.19596 -0.22463,0.21457 -1.38059,0.21457 -0.69616,0 -1.29793,-0.0322 -1.33727,-0.0715 z m -0.1788,-1.00132 c 0,-0.20435 0.0715,-0.21457 1.50198,-0.21457 1.43045,0 1.50197,0.0102 1.50197,0.21457 0,0.20435 -0.0715,0.21457 -1.50197,0.21457 -1.43046,0 -1.50198,-0.0103 -1.50198,-0.21457 z m 0.34545,-0.76814 c 0.0703,-0.21081 0.75727,-0.51927 1.15653,-0.51927 0.39925,0 1.08625,0.30846 1.15652,0.51927 0.0298,0.0894 -0.29545,0.12444 -1.15652,0.12444 -0.86108,0 -1.18635,-0.035 -1.15653,-0.12444 z"
       id="path1" />
    <path
       style="fill:#333333;stroke-width:0.185361;fill-opacity:1"
       d="m 77.525727,133.34658 c -0.39346,-0.0907 -0.62355,-0.30422 -0.73406,-0.68105 -0.0272,-0.0923 -0.0311,-0.21404 -0.0364,-1.1006 l -0.005,-0.99673 h 0.27021 0.27023 l 0.004,0.97061 c 0.005,1.07957 -1.7e-4,1.02788 0.1263,1.15812 0.0934,0.0962 0.2055,0.14067 0.35739,0.14182 0.24438,0.002 0.419,-0.098 0.48641,-0.27815 0.0347,-0.0927 0.0359,-0.129 0.0359,-1.04419 v -0.94821 h 0.26987 0.26985 l -5.6e-4,0.9445 c -6.6e-4,1.02462 -0.008,1.12425 -0.0943,1.31318 -0.10401,0.2271 -0.29765,0.39885 -0.54965,0.48739 -0.10794,0.038 -0.16736,0.0467 -0.34781,0.0515 -0.14329,0.004 -0.25332,-0.002 -0.3221,-0.0182 z m -3.14255,-1.39427 v -1.38411 h 0.26115 0.26116 v 0.54841 0.54843 h 0.51359 0.51361 v -0.54843 -0.54841 h 0.26116 0.26114 v 1.38411 1.38412 h -0.26114 -0.26116 v -0.5661 -0.5661 l -0.50926,0.004 -0.50924,0.004 -0.004,0.56148 -0.004,0.56149 h -0.26092 -0.26091 z m 4.753,-3.7e-4 v -1.38457 l 0.26435,0.004 0.26433,0.004 0.3166,0.65554 c 0.17412,0.36055 0.32169,0.6759 0.32793,0.70077 0.0164,0.0652 0.0367,0.056 0.0702,-0.0316 0.0161,-0.0422 0.16482,-0.35765 0.33039,-0.70077 l 0.30103,-0.62385 0.27273,-0.004 0.27272,-0.004 -0.004,1.38021 -0.004,1.38021 -0.26551,0.004 -0.2655,0.004 -6.6e-4,-0.85791 -6.7e-4,-0.85791 -0.0681,0.13928 c -0.0374,0.0766 -0.14192,0.29597 -0.23216,0.48749 l -0.16408,0.34821 -0.20783,0.004 -0.20782,0.004 -0.16521,-0.34436 c -0.0908,-0.1894 -0.19599,-0.41244 -0.23363,-0.49564 l -0.0684,-0.15127 -0.004,0.86074 -0.004,0.86075 h -0.26099 -0.26099 z m 2.73342,0.002 v -1.3853 l 0.64853,3.7e-4 c 0.48935,1.9e-4 0.67683,0.005 0.76382,0.0247 0.39756,0.0842 0.62975,0.40003 0.60252,0.81935 -0.0113,0.17334 -0.0622,0.31176 -0.15256,0.41437 -0.038,0.0431 -0.0691,0.084 -0.0691,0.0908 0,0.007 0.0405,0.0564 0.0899,0.11048 0.17153,0.18737 0.23302,0.40106 0.18956,0.65875 -0.0501,0.29695 -0.2195,0.49694 -0.50879,0.60061 -0.10663,0.0382 -0.13322,0.0396 -0.83705,0.0454 l -0.72688,0.005 z m 1.40129,0.8171 c 0.10401,-0.0522 0.14821,-0.13011 0.14821,-0.26116 0,-0.1259 -0.041,-0.20243 -0.13933,-0.26021 -0.0558,-0.0328 -0.0944,-0.0362 -0.46567,-0.0412 l -0.40479,-0.005 v 0.30749 0.30749 l 0.39609,-0.005 c 0.35402,-0.005 0.40345,-0.01 0.46549,-0.0408 z m -0.0519,-1.15079 c 0.0935,-0.049 0.13307,-0.12098 0.13307,-0.24205 0,-0.12106 -0.0395,-0.19301 -0.13307,-0.24203 -0.0633,-0.0332 -0.10369,-0.037 -0.43961,-0.0419 l -0.36998,-0.005 v 0.28948 0.28946 l 0.36998,-0.005 c 0.33564,-0.005 0.37643,-0.009 0.43961,-0.0421 z m 1.03591,0.33266 v -1.38428 h 0.26986 0.26986 v 1.12296 1.12296 h 0.575 0.575 l -0.004,0.25681 -0.004,0.2568 -0.84006,0.004 -0.84004,0.004 z m 1.84548,-1.7e-4 v -1.38411 h 0.84441 0.8444 v 0.26114 0.26117 h -0.57455 -0.57453 v 0.28726 0.28727 h 0.57453 0.57455 v 0.26987 0.26985 h -0.57455 -0.57453 v 0.30468 0.30468 h 0.57453 0.57455 v 0.26115 0.26116 h -0.8444 -0.84441 z m 1.94996,0 v -1.38411 l 0.64853,3.7e-4 c 0.72138,3.7e-4 0.80809,0.01 0.98947,0.1063 0.12337,0.0658 0.24878,0.19735 0.30489,0.31993 0.0812,0.17734 0.0945,0.42225 0.0338,0.62243 -0.0279,0.092 -0.11577,0.22945 -0.1673,0.26163 -0.0184,0.0115 -0.0335,0.0253 -0.0335,0.0308 0,0.005 0.0383,0.0497 0.0851,0.0982 0.21308,0.22106 0.27044,0.46407 0.18553,0.78596 -0.0696,0.26397 -0.32083,0.4768 -0.61883,0.52432 -0.0635,0.01 -0.40191,0.0181 -0.7704,0.0182 l -0.65724,1.3e-4 z m 1.4004,0.81798 c 0.11037,-0.0555 0.14041,-0.11139 0.14041,-0.26085 0,-0.14454 -0.0279,-0.19961 -0.1324,-0.26115 -0.0536,-0.0317 -0.0965,-0.0354 -0.46391,-0.0406 l -0.40479,-0.005 v 0.30794 0.30794 l 0.39609,-0.007 c 0.35228,-0.005 0.40366,-0.0109 0.4646,-0.041 z m -0.0598,-1.14607 c 0.0932,-0.0485 0.12855,-0.10815 0.13541,-0.22861 0.008,-0.13072 -0.0315,-0.20994 -0.12829,-0.2607 -0.0612,-0.0321 -0.10521,-0.0362 -0.43801,-0.0413 l -0.36998,-0.005 v 0.28974 0.28975 l 0.36998,-0.005 c 0.31631,-0.004 0.3788,-0.0109 0.43089,-0.0374 z m 1.04462,0.32809 v -1.38411 h 0.83569 0.8357 v 0.26114 0.26117 h -0.57454 -0.57453 v 0.28726 0.28727 h 0.57453 0.57454 v 0.26963 0.26962 l -0.57019,0.004 -0.57018,0.004 v 0.29598 0.29597 l 0.57018,0.004 0.57019,0.004 v 0.26092 0.26093 h -0.8357 -0.83569 z m 1.94995,0 v -1.38411 h 0.8357 0.83569 v 0.26114 0.26117 h -0.57453 -0.57454 v 0.28726 0.28727 h 0.57454 0.57453 v 0.26987 0.26985 h -0.57453 -0.57454 v 0.30468 0.30468 h 0.57454 0.57453 v 0.26115 0.26116 h -0.83569 -0.8357 z"
       id="path2" />
  </g>
</svg>
