<?xml version="1.0" encoding="UTF-8" standalone="no"?>
<!-- Created with Inkscape (http://www.inkscape.org/) -->

<svg
   width="78.816971mm"
   height="12.38663mm"
   viewBox="0 0 78.816971 12.38663"
   version="1.1"
   id="svg1"
   xml:space="preserve"
   inkscape:version="1.4.2 (f4327f4, 2025-05-13)"
   sodipodi:docname="inquire-g.svg"
   xmlns:inkscape="http://www.inkscape.org/namespaces/inkscape"
   xmlns:sodipodi="http://sodipodi.sourceforge.net/DTD/sodipodi-0.dtd"
   xmlns="http://www.w3.org/2000/svg"
   xmlns:svg="http://www.w3.org/2000/svg"><sodipodi:namedview
     id="namedview1"
     pagecolor="#ffffff"
     bordercolor="#000000"
     borderopacity="0.25"
     inkscape:showpageshadow="2"
     inkscape:pageopacity="0.0"
     inkscape:pagecheckerboard="0"
     inkscape:deskcolor="#d1d1d1"
     inkscape:document-units="mm"
     inkscape:zoom="1.4765517"
     inkscape:cx="115.13312"
     inkscape:cy="103.61981"
     inkscape:window-width="1440"
     inkscape:window-height="830"
     inkscape:window-x="-6"
     inkscape:window-y="-6"
     inkscape:window-maximized="1"
     inkscape:current-layer="layer1" /><defs
     id="defs1" /><g
     inkscape:label="Layer 1"
     inkscape:groupmode="layer"
     id="layer1"
     transform="translate(-67.602186,-111.5991)"><path
       style="fill:#333333;fill-opacity:1"
       d="m 82.325201,123.82856 c -0.220843,-0.0877 -0.555741,-0.30469 -0.744219,-0.48217 -0.188477,-0.17748 -1.804998,-2.33161 -3.592268,-4.78694 -1.78727,-2.45533 -3.36835,-4.61145 -3.513511,-4.79136 -0.295431,-0.36617 -0.447523,-0.40045 -0.743546,-0.1676 l -0.202804,0.15953 v 5.03593 5.03593 h -0.926656 -0.926655 l 0.02226,-5.25319 0.02226,-5.25318 0.173654,-0.32498 c 0.629723,-1.17848 1.902615,-1.65215 3.061978,-1.13942 0.53672,0.23736 0.784187,0.49644 1.775053,1.85837 0.427543,0.58765 1.49833,2.05559 2.379526,3.26209 0.881197,1.2065 2.088847,2.86039 2.683667,3.67531 1.005925,1.37814 1.098319,1.48166 1.322332,1.48166 0.147067,0 0.29793,-0.0631 0.387467,-0.16198 0.140578,-0.15531 0.147487,-0.36961 0.167493,-5.19546 l 0.02087,-5.03347 h 0.886053 0.886054 l -0.02177,5.29167 c -0.02175,5.2862 -0.02194,5.29199 -0.191272,5.60851 -0.262291,0.49029 -0.526715,0.76477 -0.986973,1.02453 -0.577339,0.32583 -1.354311,0.38843 -1.938993,0.15622 z m 7.867591,-0.0219 c -0.254,-0.0919 -0.625811,-0.2654 -0.826247,-0.38546 -0.783748,-0.46946 -1.466884,-1.51845 -1.603402,-2.4621 -0.09335,-0.64527 -0.08967,-5.74894 0.0046,-6.32506 0.170168,-1.04041 1.015614,-2.16832 1.957925,-2.61209 0.811069,-0.38196 1.299102,-0.42285 5.046861,-0.42285 3.733865,0 4.287535,0.0457 5.045357,0.41648 0.801834,0.3923 1.520564,1.20166 1.846784,2.07967 0.12761,0.34344 0.14603,0.69033 0.1712,3.22409 0.019,1.90936 -7.6e-4,3.01093 -0.0602,3.36347 -0.37192,2.20497 -2.677209,3.73108 -4.812558,3.18593 -1.398718,-0.3571 -2.498371,-1.38323 -2.926405,-2.73076 -0.1084,-0.34127 -0.141128,-0.80011 -0.168816,-2.36682 l -0.03435,-1.94349 h 0.925214 0.925213 l 0.02535,1.82803 c 0.0243,1.75255 0.03305,1.84368 0.211838,2.20695 0.410611,0.83428 1.032109,1.23049 1.930176,1.23049 0.682282,0 1.039788,-0.14448 1.502511,-0.6072 0.626263,-0.62626 0.614156,-0.5503 0.614156,-3.8537 v -2.92847 l -0.232303,-0.35717 c -0.300279,-0.46167 -0.690643,-0.72138 -1.24614,-0.82904 -0.301964,-0.0585 -1.588161,-0.0786 -3.986406,-0.0622 l -3.540606,0.0242 -0.442654,0.22429 c -0.335247,0.16987 -0.503331,0.31885 -0.692727,0.614 l -0.250073,0.38971 v 3.12465 3.12465 l 0.208637,0.31528 c 0.415227,0.62745 1.091603,0.93945 2.042726,0.94228 l 0.404091,10e-4 v 0.88515 0.88516 l -0.788939,-0.006 c -0.605449,-0.005 -0.896348,-0.0449 -1.250758,-0.17319 z m 18.216978,0.0205 c -0.80258,-0.20724 -1.42549,-0.50638 -2.10756,-1.0121 -0.73158,-0.54243 -1.19986,-1.12128 -1.6369,-2.02341 -0.56468,-1.1656 -0.57949,-1.30417 -0.57949,-5.42231 v -3.62163 h 0.88515 c 0.48684,0 0.88919,0.026 0.89413,0.0577 0.005,0.0317 0.0174,1.61636 0.0277,3.52136 0.0203,3.73798 0.0345,3.89007 0.4416,4.717 0.58876,1.19594 1.72424,1.9624 3.06229,2.06708 1.77498,0.13886 3.30464,-0.86877 3.93066,-2.58923 0.18008,-0.4949 0.18234,-0.53957 0.2098,-4.13712 l 0.0278,-3.63682 h 0.87922 0.87922 l 0.002,0.98137 c 0.0111,5.93248 -7.6e-4,6.44534 -0.16218,7.03142 -0.56723,2.0595 -2.09573,3.54431 -4.18844,4.06873 -0.78664,0.19712 -1.79659,0.19631 -2.56484,-0.002 z m -40.807584,-6.03733 v -6.04212 h 0.923636 0.923637 v 6.04212 6.04213 h -0.923637 -0.923636 z m 49.953334,0 v -6.04212 h 0.92364 0.92363 v 6.04212 6.04213 h -0.92363 -0.92364 z m 4.03441,5.19034 c 0.0296,-0.46849 0.12171,-1.11691 0.20458,-1.44094 0.40759,-1.59367 1.53018,-2.96761 3.02829,-3.70635 0.9966,-0.49145 1.33283,-0.55441 3.31605,-0.62094 0.97367,-0.0327 1.85542,-0.0864 1.95945,-0.11951 0.34204,-0.1087 0.72792,-0.42248 0.96187,-0.78214 0.201,-0.30899 0.23016,-0.42341 0.23016,-0.90294 0,-0.47607 -0.0304,-0.59752 -0.22877,-0.91294 -0.26642,-0.42371 -0.66383,-0.71195 -1.12978,-0.81942 -0.19395,-0.0447 -1.91259,-0.077 -4.15974,-0.0781 l -3.82925,-0.002 v -0.92899 -0.92898 l 4.13712,0.0284 c 4.04057,0.0277 4.14776,0.0323 4.59273,0.19811 1.31607,0.49027 2.23649,1.58226 2.44103,2.89602 0.20871,1.34061 -0.40152,2.74411 -1.53101,3.52122 l -0.33124,0.2279 0.35736,0.39747 c 1.0624,1.18164 1.55001,2.41328 1.5906,4.01765 l 0.0195,0.7697 -0.89255,0.0216 -0.89255,0.0216 -0.0492,-0.80389 c -0.0574,-0.9376 -0.2714,-1.61547 -0.71213,-2.25539 -0.96421,-1.39999 -2.72785,-2.0363 -4.35456,-1.5711 -0.68636,0.19628 -1.16348,0.48473 -1.72825,1.04485 -0.75285,0.74665 -1.08299,1.54109 -1.1594,2.78991 l -0.0484,0.79094 h -0.92289 -0.9229 z m 16.24711,0.79944 c -1.33829,-0.29984 -2.27783,-1.11174 -2.70062,-2.33371 -0.19984,-0.57761 -0.20014,-1.653 -6.2e-4,-2.23213 0.18173,-0.52746 0.64239,-1.21745 1.02502,-1.5353 0.42631,-0.35414 1.14938,-0.68816 1.67622,-0.77433 0.26023,-0.0426 2.23407,-0.0757 4.52197,-0.076 l 4.06015,-4.5e-4 v 0.92057 0.92057 l -4.25829,0.0223 -4.25829,0.0223 -0.32075,0.21232 c -0.17642,0.11678 -0.4163,0.35671 -0.53308,0.53317 -0.18204,0.27509 -0.21232,0.39928 -0.21232,0.87087 0,0.4716 0.0303,0.59579 0.21232,0.87088 0.11678,0.17646 0.35667,0.41639 0.53309,0.53316 l 0.32076,0.21233 4.25828,0.0217 4.25828,0.0217 v 0.92115 0.92115 l -4.21409,-0.009 c -2.31775,-0.005 -4.28337,-0.0245 -4.36803,-0.0434 z m -2.34758,-11.10826 v -0.92364 h 5.46485 5.46485 v 0.92364 0.92364 h -5.46485 -5.46485 z"
       id="path1" /></g></svg>
