<?xml version="1.0" encoding="UTF-8" standalone="no"?>
<!-- Created with Inkscape (http://www.inkscape.org/) -->

<svg
   width="141.50874mm"
   height="26.414351mm"
   viewBox="0 0 141.50874 26.414351"
   version="1.1"
   id="svg1"
   inkscape:version="1.4.2 (f4327f4, 2025-05-13)"
   sodipodi:docname="stadskupan-g.svg"
   xmlns:inkscape="http://www.inkscape.org/namespaces/inkscape"
   xmlns:sodipodi="http://sodipodi.sourceforge.net/DTD/sodipodi-0.dtd"
   xmlns="http://www.w3.org/2000/svg"
   xmlns:svg="http://www.w3.org/2000/svg">
  <sodipodi:namedview
     id="namedview1"
     pagecolor="#ffffff"
     bordercolor="#000000"
     borderopacity="0.25"
     inkscape:showpageshadow="2"
     inkscape:pageopacity="0.0"
     inkscape:pagecheckerboard="0"
     inkscape:deskcolor="#d1d1d1"
     inkscape:document-units="mm"
     inkscape:zoom="0.73827583"
     inkscape:cx="273.61048"
     inkscape:cy="-14.89958"
     inkscape:window-width="1440"
     inkscape:window-height="830"
     inkscape:window-x="-6"
     inkscape:window-y="-6"
     inkscape:window-maximized="1"
     inkscape:current-layer="layer1" />
  <defs
     id="defs1" />
  <g
     inkscape:label="Layer 1"
     inkscape:groupmode="layer"
     id="layer1"
     transform="translate(-28.608073,-123.73714)">
    <path
       style="fill:#333333;stroke:none;stroke-width:0.200445;fill-opacity:1"
       d="m 40.075788,123.73851 c -0.760348,0.0531 -1.815176,0.98525 -2.474946,1.36138 -2.082969,1.18748 -4.160032,2.3922 -6.222725,3.61454 -0.632467,0.3748 -1.27535,0.73183 -1.909246,1.10412 -0.220464,0.12949 -0.621081,0.27814 -0.735172,0.52179 -0.255154,0.54488 -0.04266,1.63464 -0.04266,2.23525 v 5.51559 3.95992 c 0,0.41122 -0.145716,1.17221 0.07268,1.53244 0.274769,0.4532 1.175904,0.76029 1.624429,1.0274 1.470959,0.87604 2.953485,1.74339 4.454905,2.56526 1.312737,0.71857 2.588818,1.50797 3.889204,2.24889 0.390604,0.22255 1.01435,0.77804 1.484969,0.72252 0.849783,-0.10027 1.949354,-1.06205 2.687084,-1.49021 1.998952,-1.16015 4.011571,-2.29406 6.010588,-3.45424 0.637313,-0.36987 1.276159,-0.73854 1.909245,-1.11557 0.240674,-0.14334 0.62211,-0.2823 0.735173,-0.55894 0.247903,-0.60657 0.04266,-1.67222 0.04266,-2.3261 v -5.37418 -4.03062 c 0,-0.38976 0.150735,-1.18022 -0.07268,-1.51258 -0.3141,-0.46727 -1.280152,-0.80779 -1.765857,-1.08394 -1.41882,-0.80666 -2.824202,-1.63698 -4.242766,-2.44395 -1.299313,-0.73913 -2.590963,-1.49128 -3.889204,-2.23231 -0.403882,-0.23054 -1.075892,-0.81999 -1.555681,-0.78646 m 4.596331,3.60433 v 0.0707 l -3.182074,1.84912 -1.343544,0.71612 -1.272829,-0.62795 -3.323502,-2.008 3.252789,-1.89506 1.343542,-0.67586 1.414257,0.76065 3.111361,1.81027 m -10.465492,0.84855 v 3.67706 l -0.04266,1.53244 -1.230163,0.82095 -3.323499,1.88938 v -3.67706 l 0.04266,-1.5289 1.15945,-0.77658 3.394213,-1.93729 m 10.88977,0 v 3.81849 l -0.07268,1.45818 -1.200152,0.73392 v -3.32351 c -0.419677,0.18085 -1.395044,0.56685 -1.583727,1.00482 -0.396963,0.92145 0.418893,2.42707 -0.115345,3.28188 -0.250182,0.4003 -1.120786,0.78755 -1.553717,0.94605 v -3.81849 l 0.07268,-1.45817 1.270864,-0.81523 3.182077,-1.82794 m -5.444886,7.99054 -3.182075,-1.84911 -1.341577,-0.86122 -0.07268,-1.46172 v -3.74777 c 1.181643,0.34105 2.329409,1.28738 3.394212,1.89865 0.328589,0.18864 1.005143,0.43527 1.15945,0.80152 0.180214,0.42776 0.04266,1.15281 0.04266,1.6133 v 3.60635 m 6.505577,-7.91982 3.111364,1.80851 1.270865,0.82292 0.07268,1.46991 v 3.74777 c -1.117912,-0.32884 -2.251365,-1.22794 -3.252787,-1.82434 -0.34933,-0.20805 -0.968792,-0.42009 -1.200154,-0.76442 -0.198961,-0.29612 -0.07268,-0.95562 -0.07268,-1.30044 v -2.68709 c 0,-0.39734 -0.08407,-0.90396 0.07071,-1.27282 m 13.506142,11.31404 c -0.762895,0.21447 -1.556929,0.35127 -2.333523,0.50906 -0.226702,0.0461 -0.694852,0.0506 -0.845552,0.25029 -0.186989,0.24773 0.07647,0.89446 0.169253,1.14989 0.426705,1.17475 1.279465,2.07575 2.373407,2.6652 3.49041,1.88078 9.19266,0.35633 9.19266,-4.22088 0,-0.59195 -0.0364,-1.13069 -0.2267,-1.69711 -0.93906,-2.79567 -3.98491,-2.74055 -6.349588,-3.38859 -0.913847,-0.25044 -1.878062,-0.99916 -1.496316,-2.05629 0.45899,-1.27104 2.358674,-1.57416 3.405564,-0.90982 0.60525,0.38407 0.85372,0.92289 1.1314,1.54623 l 3.25279,-0.70712 c -0.39384,-1.52165 -1.11066,-2.71223 -2.54566,-3.47273 -3.10041,-1.64311 -8.135867,-0.37837 -8.737336,3.47273 -0.455944,2.91931 1.607396,4.79351 4.28243,5.33172 1.159766,0.23334 3.185056,0.23419 3.713626,1.52742 0.66503,1.62712 -1.43708,2.34601 -2.652933,2.25643 -1.320705,-0.0973 -1.92043,-1.16178 -2.333522,-2.25643 m 36.558505,-10.88977 v 5.37417 h -0.0707 c -0.28988,-0.62153 -1.00494,-1.05694 -1.6264,-1.30006 -1.90172,-0.74395 -4.19489,0.0463 -5.50332,1.5122 -1.95308,2.18821 -1.97837,6.15641 -0.27467,8.48553 1.80413,2.4664 5.4505,2.81223 7.4751,0.49499 l 0.14142,1.27283 h 3.11136 l -0.0707,-15.83966 h -3.18207 m 14.708246,0 v 15.83966 h 2.33352 c 0.22279,0 0.68868,0.086 0.8466,-0.11338 0.14661,-0.18512 0.0727,-0.58516 0.0727,-0.80588 0,-0.69071 -0.0803,-1.43658 0.009,-2.12139 0.0735,-0.56089 0.82728,-1.2347 1.26338,-1.55568 l 2.1078,3.3235 0.93946,1.23016 1.19551,0.0427 h 2.61637 c -0.15881,-0.61235 -0.7052,-1.18127 -1.06243,-1.69711 -0.78453,-1.13285 -1.56619,-2.26913 -2.3618,-3.39421 -0.29083,-0.41127 -1.20488,-1.32175 -1.17581,-1.83853 0.0257,-0.45586 0.76912,-0.95975 1.05239,-1.27283 0.98519,-1.08881 2.51966,-2.23562 3.19409,-3.53564 h -2.7578 l -1.19011,0.0427 -1.25482,1.30087 -2.57567,2.96994 v -8.41482 h -3.2528 m -74.460549,2.12139 c 0,0.49928 -0.1672,1.35639 0.04266,1.81173 0.186408,0.40445 1.174958,0.82582 1.583725,0.94606 0,-0.47656 0.178275,-1.40136 -0.07268,-1.81529 -0.249588,-0.41168 -1.121533,-0.75628 -1.553716,-0.9425 m 38.397044,13.8597 v -2.7578 c -0.64988,4e-4 -1.32524,0.19672 -1.90815,-0.20182 -0.61493,-0.42043 -0.70796,-1.237 -0.70823,-1.91956 v -4.17205 h 1.76783 l 0.73517,-0.0727 0.11338,-0.70516 v -1.97996 h -2.54566 v -0.98998 c -0.77749,0.016 -1.57255,0.25797 -2.33353,0.41015 -0.23787,0.0476 -0.68966,0.0541 -0.84659,0.26615 -0.18764,0.2535 -0.0727,0.86062 -0.0727,1.16223 v 2.96994 c 0,2.56349 -0.6866,6.44931 2.1921,7.75631 0.39757,0.18051 0.83991,0.29894 1.27282,0.35519 0.78472,0.10198 1.56039,-0.0211 2.33353,-0.12096 m 9.12195,-1.48497 0.0707,1.34354 h 3.11137 l -0.0707,-11.6676 -3.18208,-0.0707 v 1.20212 c -0.51473,-0.51474 -1.00347,-1.00487 -1.6971,-1.26819 -0.63855,-0.24242 -1.24139,-0.26992 -1.90925,-0.22311 -1.29969,0.0911 -2.53512,0.51936 -3.45287,1.49408 -2.72264,2.89169 -2.19088,9.18983 1.96791,10.51967 0.80393,0.25708 1.70826,0.38011 2.54566,0.2433 1.17048,-0.19124 1.76058,-0.83283 2.61637,-1.57309 m 71.137056,0 0.0707,1.34354 h 3.18207 c -0.48099,-3.80574 -0.14143,-7.83136 -0.14143,-11.6676 l -3.18207,-0.0707 v 1.20211 c -2.04379,-2.20051 -5.52493,-1.94049 -7.38823,0.42428 -2.18453,2.77244 -1.75301,8.06848 1.58978,9.77555 0.83531,0.42657 1.74882,0.62861 2.68708,0.61896 1.35384,-0.0139 2.29842,-0.66676 3.18208,-1.62612 m -51.90318,-2.40424 -3.04065,0.5657 c 0.1769,0.85753 0.4682,1.64255 1.13244,2.25054 2.42702,2.22152 7.95314,1.72908 8.77525,-1.89697 0.59218,-2.61185 -1.49809,-3.964 -3.75568,-4.34273 -0.83595,-0.14024 -2.26433,-0.10371 -2.71731,-0.961 -0.4287,-0.81135 0.54573,-1.43846 1.23234,-1.53413 0.97264,-0.13553 1.76406,0.55507 1.97996,1.46368 l 3.04065,-0.49499 c -0.5598,-4.33163 -8.22678,-4.50913 -9.41096,-0.49499 -0.753266,2.55343 1.05831,4.20273 3.40038,4.59067 0.82088,0.13596 2.52497,0.11601 2.92841,0.99592 0.33382,0.72805 -0.53482,1.32481 -1.16059,1.40094 -1.09883,0.13368 -2.13798,-0.42211 -2.40424,-1.54264 m 33.73,-6.57629 h -0.0707 v -1.34354 h -3.11137 v 15.83967 h 3.2528 l -0.0707,-5.37418 c 1.98152,2.26665 5.69009,1.77815 7.44181,-0.5657 1.78718,-2.39132 1.73031,-6.29074 -0.24957,-8.55619 -1.53341,-1.75458 -6.01687,-2.77614 -7.19224,-6e-5 m 25.4566,0.0707 h -0.0707 l -0.0707,-1.41425 h -2.1921 l -0.80589,0.0727 -0.11338,0.77587 v 2.12138 8.69767 h 3.25279 v -4.66704 c 0,-0.89311 -0.0866,-1.9106 0.24493,-2.75779 0.50926,-1.30154 2.27617,-2.05059 3.43109,-1.04564 0.81,0.70481 0.77889,1.76255 0.77889,2.74274 v 5.72773 h 3.25278 v -5.93987 c 0,-1.46185 0.0502,-2.94563 -0.73992,-4.24276 -1.34103,-2.20162 -5.66634,-2.57933 -6.96777,-0.0707 m -39.95272,-1.41425 v 5.37416 c 0,1.4641 -0.0374,2.94101 0.73916,4.24277 2.05381,3.44307 7.86739,3.03899 9.49214,-0.5657 0.51866,-1.15069 0.44633,-2.44551 0.44633,-3.67707 v -5.37416 h -2.26281 c -0.23534,0 -0.67992,-0.0831 -0.8766,0.0727 -0.33486,0.2652 -0.11338,1.70919 -0.11338,2.11941 v 3.67707 c 0,0.77771 0.0421,1.5405 -0.46171,2.19204 -1.01857,1.31725 -2.96278,0.9701 -3.55244,-0.56565 -0.29741,-0.77462 -0.1579,-1.72902 -0.1579,-2.54566 v -4.94989 h -3.25279 m -41.366976,2.63934 c 3.64528,-0.27635 3.84324,6.04293 0.21214,6.31821 -3.60485,0.27328 -3.77556,-6.04807 -0.21214,-6.31821 m 12.30402,-0.002 c 3.66275,-0.36034 3.92119,6.04407 0.28286,6.3199 -3.60504,0.2733 -3.80797,-5.97311 -0.28286,-6.3199 m 45.751166,0.002 c 3.6377,-0.60628 4.47721,5.62158 1.06069,6.23757 -3.73618,0.67362 -4.58054,-5.65092 -1.06069,-6.23757 m 13.08187,-6e-5 c 3.67026,-0.27824 3.86591,6.04122 0.21214,6.31821 -3.57144,0.27075 -3.75224,-6.04982 -0.21214,-6.31821 m -112.574748,2.23984 v 3.67707 l -0.04266,1.54062 -1.15945,0.78231 -3.394212,1.91984 v -3.74778 l 0.07268,-1.47013 1.270866,-0.83535 3.252786,-1.86658 m 10.960481,0 v 3.8185 l -0.07268,1.45818 -1.270865,0.81521 -3.182077,1.82795 v -3.81849 l 0.07268,-1.45818 1.270865,-0.81522 3.182076,-1.82795 m -16.405365,7.99055 c -0.414364,-0.17856 -1.232657,-0.50003 -1.483004,-0.88599 -0.146267,-0.22549 -0.07268,-0.62544 -0.07268,-0.88183 0,-0.67262 0.212232,-1.77312 -0.04266,-2.39682 -0.191803,-0.4693 -1.17101,-0.79502 -1.583727,-1.06811 v 3.39422 l -1.341579,-0.88517 -0.07268,-1.44835 v -3.74778 c 1.170672,0.34435 2.342097,1.29208 3.394213,1.91001 0.324062,0.19033 1.003741,0.43047 1.159449,0.79191 0.174985,0.40619 0.04266,1.10251 0.04266,1.54084 v 3.67707 m 6.434863,-7.91983 3.111364,1.80852 1.270865,0.82291 0.07268,1.54062 v 3.74778 c -0.414027,-0.21785 -1.400261,-0.54866 -1.583727,-0.9974 -0.386556,-0.94548 0.402525,-2.41482 -0.115344,-3.30124 -0.23481,-0.40192 -1.12313,-0.79781 -1.553717,-0.93411 v 3.3235 l -1.200153,-0.74374 -0.07268,-1.30693 v -2.68708 z"
       id="path165" />
  </g>
</svg>
