<?xml version="1.0" encoding="UTF-8" standalone="no"?>
<!-- Created with Inkscape (http://www.inkscape.org/) -->

<svg
   width="132.29167mm"
   height="24.709848mm"
   viewBox="0 0 132.29167 24.709848"
   version="1.1"
   id="svg1"
   inkscape:version="1.4.2 (f4327f4, 2025-05-13)"
   sodipodi:docname="stadskupan.svg"
   xmlns:inkscape="http://www.inkscape.org/namespaces/inkscape"
   xmlns:sodipodi="http://sodipodi.sourceforge.net/DTD/sodipodi-0.dtd"
   xmlns="http://www.w3.org/2000/svg"
   xmlns:svg="http://www.w3.org/2000/svg">
  <sodipodi:namedview
     id="namedview1"
     pagecolor="#ffffff"
     bordercolor="#000000"
     borderopacity="0.25"
     inkscape:showpageshadow="2"
     inkscape:pageopacity="0.0"
     inkscape:pagecheckerboard="0"
     inkscape:deskcolor="#d1d1d1"
     inkscape:document-units="mm"
     inkscape:zoom="0.52203984"
     inkscape:cx="341.92792"
     inkscape:cy="90.031442"
     inkscape:window-width="1440"
     inkscape:window-height="830"
     inkscape:window-x="-6"
     inkscape:window-y="-6"
     inkscape:window-maximized="1"
     inkscape:current-layer="layer1" />
  <defs
     id="defs1" />
  <g
     inkscape:label="Layer 1"
     inkscape:groupmode="layer"
     id="layer1"
     transform="translate(-14.552083,-124.61875)">
    <path
       style="display:inline;fill:#000000;stroke-width:0.264583"
       d="m 19.909896,146.25552 -5.357813,-3.06606 v -6.28403 -6.28403 l 4.960938,-2.86153 c 2.728516,-1.57384 5.147152,-2.9739 5.374749,-3.11123 0.311354,-0.18788 1.687058,0.48552 5.55625,2.71977 2.82834,1.6332 5.291267,3.09134 5.473168,3.24031 0.475155,0.38911 0.475155,12.1934 0,12.58386 -0.327943,0.26948 -10.476227,6.14947 -10.590146,6.136 -0.03263,-0.004 -2.470348,-1.38673 -5.417146,-3.07306 z m -0.330729,-3.77622 v -2.35838 l -1.875326,-1.0812 c -1.031429,-0.59466 -1.924397,-1.08121 -1.984375,-1.08121 -0.277542,0 -0.08195,4.41919 0.208451,4.70959 0.57948,0.57948 0.740833,0.33168 0.740833,-1.13771 0,-0.80037 0.07092,-1.45521 0.157594,-1.45521 0.08668,0 0.503395,0.24623 0.926041,0.54718 0.690789,0.49189 0.768448,0.69616 0.768448,2.02136 0,1.09368 0.119507,1.56488 0.463021,1.82565 0.254662,0.19331 0.492787,0.35527 0.529167,0.3599 0.03638,0.005 0.06615,-1.05286 0.06615,-2.34997 z m 3.770313,0.78409 1.521354,-0.85747 v -2.22371 c 0,-1.22303 -0.08301,-2.2237 -0.18447,-2.2237 -0.101457,0 -1.053957,0.49749 -2.116666,1.10552 l -1.932198,1.10552 v 2.3645 2.36449 l 0.595313,-0.38884 c 0.327421,-0.21386 1.279921,-0.7747 2.116667,-1.24631 z m 6.228731,-3.23043 c -0.187965,-0.11434 -1.085893,-0.63476 -1.995398,-1.15649 l -1.653646,-0.9486 v 2.36826 c 0,1.86105 0.085,2.40089 0.396875,2.52056 0.322961,0.12394 0.396875,-0.11717 0.396875,-1.29461 0,-0.79579 0.06544,-1.4469 0.145431,-1.4469 0.07999,0 0.496705,0.18165 0.926042,0.40367 0.739532,0.38243 0.780611,0.49169 0.780611,2.07623 0,1.47919 0.06883,1.70337 0.595312,1.93898 0.588796,0.26349 0.596157,0.24167 0.672481,-1.9934 0.05571,-1.63157 -0.01783,-2.31761 -0.264583,-2.4677 z m 5.290944,0.21973 c 0.04205,-1.2618 0.02273,-2.29418 -0.0429,-2.29418 -0.06564,0 -0.963247,0.48655 -1.994675,1.08121 l -1.875324,1.0812 v 2.34508 2.34508 l 1.918229,-1.1321 1.918229,-1.13211 z m -15.723657,-6.40103 c 0.380285,-0.27807 0.44248,-0.70224 0.378249,-2.57959 l -0.07687,-2.2468 -1.915258,1.09319 -1.915258,1.09318 -0.003,2.33301 -0.003,2.33302 1.539981,-0.84661 c 0.846989,-0.46564 1.744784,-0.99637 1.995101,-1.1794 z m 5.725336,-0.2471 v -2.23729 l -1.918229,-1.10797 c -1.055027,-0.60939 -2.007527,-1.15745 -2.116667,-1.21791 -0.109141,-0.0605 -0.19663,0.93889 -0.19442,2.22078 l 0.004,2.33072 1.914212,1.11968 c 1.052817,0.61582 2.003507,1.12184 2.112648,1.12448 0.109141,0.003 0.198438,-1.00198 0.198438,-2.23249 z m -2.579688,-0.3224 c -0.417919,-0.29153 -0.595313,-0.6816 -0.595313,-1.30904 0,-1.03013 0.05003,-1.05043 1.083658,-0.43985 0.600067,0.35447 0.768427,0.64431 0.768427,1.32291 0,0.96363 -0.327084,1.07449 -1.256772,0.42598 z m 4.696355,0.42982 c 0,-1.50095 0.04409,-1.60897 0.859896,-2.10648 l 0.859895,-0.5244 0.07935,1.45433 c 0.08031,1.47189 0.175731,1.62012 0.791485,1.22947 0.246571,-0.15643 0.320215,-0.85443 0.264583,-2.50777 l -0.07708,-2.291 -1.918229,1.10658 -1.91823,1.10658 v 2.34059 c 0,2.2586 0.01855,2.33066 0.529167,2.05738 0.438595,-0.23473 0.529167,-0.55399 0.529167,-1.86528 z m 7.9375,-0.20891 c 0,-2.16278 -0.0448,-2.36069 -0.595313,-2.62984 -0.327422,-0.16009 -1.22039,-0.65786 -1.984375,-1.10616 l -1.389062,-0.81509 v 2.33227 2.33228 l 1.918229,1.10563 c 1.055026,0.6081 1.947995,1.1088 1.984375,1.11266 0.03638,0.004 0.06615,-1.04542 0.06615,-2.33175 z m -7.528497,-4.37325 1.974419,-1.15578 -1.888188,-1.09318 c -1.038503,-0.60125 -2.009815,-1.09318 -2.158471,-1.09318 -0.355037,0 -3.562824,1.79646 -3.750754,2.10054 -0.128469,0.20786 3.100728,2.31465 3.639097,2.3742 0.115213,0.0128 1.097968,-0.49692 2.183897,-1.1326 z m 85.315996,11.34223 v -7.54062 h 1.46351 c 0.99209,0 1.50813,0.11627 1.60202,0.36095 0.11223,0.29245 0.32213,0.26734 1.10598,-0.13229 3.90802,-1.99242 8.02494,2.04253 6.95629,6.81779 -0.75144,3.35775 -4.19068,5.24738 -6.97082,3.82999 l -0.98198,-0.50065 v 2.35273 2.35273 H 114.3 112.7125 Z m 7.28807,0.012 c 0.52047,-0.52047 0.64943,-0.91855 0.64943,-2.00473 0,-1.14518 -0.1199,-1.47519 -0.7734,-2.12869 -1.9118,-1.9118 -4.60083,0.19283 -3.88589,3.04138 0.43496,1.73301 2.74089,2.36101 4.00986,1.09204 z m -76.336414,3.53006 c -1.658135,-0.66176 -3.182905,-2.3955 -3.182905,-3.61913 0,-0.39268 0.324784,-0.57289 1.510876,-0.83833 1.050494,-0.23509 1.539595,-0.25196 1.605121,-0.0554 0.05184,0.15551 0.329602,0.58195 0.617257,0.94764 1.131279,1.43819 3.939662,0.98494 3.939662,-0.63583 0,-0.95616 -0.409482,-1.19622 -2.953181,-1.7313 -1.061371,-0.22327 -2.194978,-0.57971 -2.51913,-0.79211 -1.699567,-1.1136 -2.418283,-2.83187 -1.935088,-4.62633 1.173316,-4.35735 8.125931,-5.03767 10.21417,-0.99946 0.543584,1.05118 0.343747,1.43018 -0.867418,1.64509 -0.557321,0.0989 -1.212069,0.23797 -1.454994,0.30905 -0.283434,0.0829 -0.503441,-0.0654 -0.614063,-0.41388 -0.245536,-0.77362 -1.587709,-1.4027 -2.544405,-1.19257 -1.020223,0.22408 -1.701115,1.21866 -1.320795,1.92929 0.332221,0.62076 0.677185,0.7637 3.046725,1.26244 3.178024,0.66891 4.387762,1.89911 4.387762,4.46195 0,1.96947 -1.015637,3.41645 -2.971675,4.23373 -1.091436,0.45603 -3.938106,0.52213 -4.957919,0.11513 z M 54.239584,143.823 c -1.653855,-0.89369 -1.824334,-1.48734 -1.864625,-6.49302 -0.01971,-2.4508 0.06432,-4.55481 0.186775,-4.67556 0.122454,-0.12076 0.847719,-0.30176 1.611704,-0.40225 1.181938,-0.15545 1.389062,-0.11843 1.389062,0.24827 0,0.33511 0.267878,0.43096 1.204452,0.43096 h 1.204452 l -0.07997,1.38906 -0.07997,1.38906 -1.25677,0.0806 -1.256771,0.0806 0.0039,2.03602 c 0.005,2.62199 0.349515,3.33238 1.669077,3.44185 l 0.999349,0.0829 -0.07939,1.3723 -0.07938,1.3723 -1.322916,0.0736 c -0.908743,0.0506 -1.612839,-0.0831 -2.248958,-0.42679 z m 6.590051,-0.13037 c -0.765861,-0.40448 -1.438529,-1.05574 -1.959843,-1.89748 -0.701675,-1.13296 -0.793038,-1.51422 -0.787617,-3.28675 0.0072,-2.36506 0.626266,-3.80137 2.13396,-4.95135 1.320188,-1.00695 3.651091,-1.19416 4.995103,-0.40117 0.746871,0.44066 0.934595,0.4735 0.934595,0.16347 0,-0.29777 0.369007,-0.38795 1.5875,-0.38795 h 1.5875 v 5.55625 5.55625 h -1.5875 c -1.403016,0 -1.5875,-0.0606 -1.5875,-0.52119 0,-0.49431 -0.04968,-0.48748 -0.962964,0.13229 -1.248794,0.84745 -2.794566,0.86082 -4.353234,0.0376 z m 3.697255,-2.58783 c 2.044684,-0.71278 2.162612,-4.30409 0.171128,-5.21147 -1.080593,-0.49235 -1.703772,-0.38021 -2.541286,0.4573 -0.646153,0.64615 -0.773399,0.98853 -0.773399,2.08099 0,1.46806 0.668909,2.58918 1.658919,2.78041 0.324522,0.0627 0.602039,0.13019 0.616704,0.15 0.01466,0.0198 0.405236,-0.0959 0.867934,-0.25723 z m 8.101235,2.7876 c -2.068481,-1.0758 -3.031088,-2.79223 -3.031088,-5.40475 0,-3.51095 2.025253,-5.82259 5.098833,-5.81984 0.636569,5.2e-4 1.47279,0.22385 1.967151,0.52527 l 0.859896,0.52429 v -2.24507 -2.24507 h 1.5875 1.5875 v 6.58151 c 0,3.61983 0.07441,6.95358 0.165364,7.40834 l 0.165365,0.82682 h -1.620573 c -1.43592,0 -1.620573,-0.0594 -1.620573,-0.52119 0,-0.49431 -0.04968,-0.48748 -0.962964,0.13229 -1.13751,0.77193 -2.969382,0.87557 -4.196411,0.2374 z m 4.157226,-3.2084 c 0.752067,-0.67769 1.087326,-2.0626 0.748125,-3.0904 -1.103252,-3.34288 -5.317672,-1.95965 -4.662927,1.53044 0.158629,0.84556 0.945042,1.79031 1.741951,2.09267 0.56075,0.21276 1.638903,-0.0516 2.172851,-0.53271 z m 6.942156,3.25232 c -0.968767,-0.42197 -2.23584,-1.8595 -2.23584,-2.53663 0,-0.3723 0.322318,-0.55607 1.369057,-0.78055 1.324409,-0.28404 1.785533,-0.14211 1.801892,0.55461 0.0076,0.32224 1.456126,0.66269 2.120717,0.49842 0.407612,-0.10076 0.693169,-0.38219 0.744088,-0.73333 0.08839,-0.60957 -0.53812,-0.8652 -3.119014,-1.27263 -1.739387,-0.27458 -2.91674,-1.52484 -2.91674,-3.09735 0,-2.284 1.839512,-3.90204 4.436141,-3.90204 1.753415,0 2.924847,0.47894 3.844441,1.57182 1.111589,1.32105 0.965925,1.76436 -0.64231,1.95483 -1.226122,0.14522 -1.407303,0.0976 -1.871287,-0.49231 -0.595498,-0.75705 -1.811094,-0.87833 -2.345809,-0.23404 -0.614799,0.74079 0.04706,1.24049 2.270649,1.71436 1.701469,0.3626 2.216806,0.59536 2.824861,1.27589 1.527339,1.70939 0.728501,4.53798 -1.550522,5.49021 -1.09052,0.45565 -3.672488,0.4495 -4.730324,-0.0113 z m 21.179783,-0.11097 c -2.30778,-1.09131 -2.77812,-2.30711 -2.77812,-7.18129 v -3.71266 h 1.5875 1.5875 v 3.32469 c 0,4.15333 0.29467,4.8649 2.01812,4.87334 1.3546,0.007 1.5396,-0.4835 1.68604,-4.46705 l 0.13229,-3.59869 1.52136,-0.0793 1.52135,-0.0794 v 4.01208 c 0,4.54265 -0.25687,5.3768 -2.02985,6.59167 -1.27939,0.87665 -3.74695,1.02557 -5.24619,0.31661 z m 23.01875,0.16465 c -1.03614,-0.3612 -2.18044,-1.43402 -2.76462,-2.59193 -1.45851,-2.89089 -0.43272,-6.90838 2.09292,-8.19686 1.36751,-0.69765 3.30529,-0.7012 4.44201,-0.008 0.70164,0.42779 0.8599,0.45196 0.8599,0.1313 0,-0.30393 0.35976,-0.39299 1.5875,-0.39299 h 1.5875 l 0.0397,5.15938 c 0.0218,2.83766 0.0516,5.3082 0.0661,5.4901 0.042,0.52534 -2.78348,0.60498 -3.07356,0.0866 -0.20121,-0.35955 -0.34261,-0.34585 -1.20587,0.11684 -1.05988,0.56806 -2.37792,0.6427 -3.63161,0.20566 z m 3.1622,-2.96641 c 1.11206,-0.46465 1.46801,-1.10382 1.46801,-2.63608 0,-1.6842 -0.86609,-2.66596 -2.35183,-2.66596 -1.3745,0 -2.13416,0.71426 -2.33252,2.19311 -0.1953,1.45608 0.33067,2.66144 1.35619,3.10798 1.01149,0.44044 0.80856,0.44033 1.86015,9.6e-4 z m -39.744988,-4.44144 0.07029,-7.48721 h 1.5875 1.5875 l 0.08166,3.70417 0.08166,3.70416 1.638136,-1.79949 1.638136,-1.7995 1.940306,0.0797 1.94031,0.0797 -2.036526,2.19051 -2.036522,2.1905 0.703324,1.06279 c 0.386828,0.58454 1.352859,1.96806 2.146734,3.07449 0.79388,1.10644 1.44342,2.113 1.44342,2.23681 0,0.12381 -0.83136,0.22511 -1.84747,0.22511 h -1.847462 l -1.417844,-2.11775 c -1.331317,-1.98851 -1.443704,-2.08917 -1.841651,-1.64944 -0.263146,0.29077 -0.454588,1.06851 -0.505005,2.0516 l -0.0812,1.5833 -1.657789,0.0789 -1.657786,0.0789 z m 45.181748,1.9055 v -5.55625 h 1.47998 c 1.24554,0 1.50138,0.0818 1.61509,0.51669 0.13261,0.5071 0.14901,0.50641 0.8843,-0.0372 0.42933,-0.31742 1.29298,-0.60074 2.02293,-0.66363 1.75245,-0.15098 2.95288,0.50265 3.72114,2.02615 0.53992,1.0707 0.59531,1.55691 0.59531,5.22552 v 4.04498 h -1.5875 -1.5875 l -0.004,-3.37344 c -0.005,-4.11313 -0.20694,-4.66236 -1.75821,-4.77624 -0.91656,-0.0673 -1.17651,0.0323 -1.64746,0.63099 -0.50338,0.63994 -0.55919,1.05061 -0.55919,4.11479 v 3.4039 h -1.5875 -1.5875 z"
       id="path6" />
  </g>
</svg>
